<svg width="32" height="32" viewBox="0 0 32 32" fill="none" xmlns="http://www.w3.org/2000/svg">
<path d="M30.325 25.825L24.75 1L23.675 2.075C22.75 3 21.525 3.5 20.25 3.5C18.975 3.5 17.75 3 16.825 2.075L15.75 1L10.175 25.825C9.92503 26.9 10.125 27.95 10.6 28.825L3.87502 27.225C2.67502 26.95 1.52502 27.875 1.52502 29.1C1.52502 30.175 2.40002 31.025 3.45002 31.025H26.2C28.9 31 30.925 28.475 30.325 25.825Z" fill="white"/>
<path d="M17.75 7.75C17.5511 7.75 17.3603 7.82902 17.2197 7.96967C17.079 8.11032 17 8.30109 17 8.5C17 8.69891 17.079 8.88968 17.2197 9.03033C17.3603 9.17098 17.5511 9.25 17.75 9.25C17.9489 9.25 18.1397 9.17098 18.2803 9.03033C18.421 8.88968 18.5 8.69891 18.5 8.5C18.5 8.30109 18.421 8.11032 18.2803 7.96967C18.1397 7.82902 17.9489 7.75 17.75 7.75ZM22.75 7.75C22.5511 7.75 22.3603 7.82902 22.2197 7.96967C22.079 8.11032 22 8.30109 22 8.5C22 8.69891 22.079 8.88968 22.2197 9.03033C22.3603 9.17098 22.5511 9.25 22.75 9.25C22.9489 9.25 23.1397 9.17098 23.2803 9.03033C23.421 8.88968 23.5 8.69891 23.5 8.5C23.5 8.30109 23.421 8.11032 23.2803 7.96967C23.1397 7.82902 22.9489 7.75 22.75 7.75Z" fill="#4F4F4F"/>
<path d="M31.075 25.65L25.475 0.824988C25.425 0.549988 25.225 0.349988 24.95 0.274988C24.7 0.199988 24.4 0.274988 24.2 0.474988L23.125 1.54999C22.375 2.32499 21.35 2.74999 20.25 2.74999C19.15 2.74999 18.125 2.32499 17.35 1.54999L16.275 0.474988C16.075 0.274988 15.8 0.199988 15.525 0.274988C15.25 0.349988 15.05 0.574988 15 0.824988L9.42503 25.65C9.10003 27.125 9.45003 28.675 10.4 29.85C10.5 29.975 10.625 30.1 10.75 30.225H3.42503C2.77503 30.225 2.25002 29.7 2.25002 29.05C2.25002 28.7 2.40002 28.35 2.70002 28.125C2.97502 27.9 3.35003 27.825 3.70003 27.9L6.67503 28.6C7.07503 28.7 7.47503 28.45 7.57503 28.05C7.67503 27.65 7.42503 27.25 7.02503 27.15L4.05003 26.45C3.25003 26.275 2.42502 26.45 1.77502 26.975C1.12502 27.475 0.775024 28.25 0.775024 29.075C0.775024 30.55 1.97502 31.75 3.45003 31.75H14.325H14.35H14.75C15.175 31.75 15.5 31.425 15.5 31C15.5 30.575 15.175 30.25 14.75 30.25H14.325C13.25 30.25 12.25 29.775 11.575 28.925C10.9 28.1 10.675 27.025 10.9 25.975L16.175 2.47499L16.275 2.57499C17.35 3.67499 18.75 4.24999 20.25 4.24999C21.75 4.24999 23.15 3.67499 24.2 2.59999L24.325 2.49999L29.625 26C29.85 27.025 29.625 28.1 28.95 28.95C28.275 29.8 27.275 30.275 26.2 30.275H26C25.575 30.275 25.25 30.6 25.25 31.025C25.25 31.45 25.575 31.775 26 31.775H26.2C27.725 31.775 29.15 31.1 30.125 29.9C31.075 28.675 31.425 27.15 31.075 25.65Z" fill="#4F4F4F"/>
<path d="M25.65 17.775C25.25 17.7 24.85 17.95 24.775 18.375L22.525 29.65C22.45 30.025 22.15 30.275 21.775 30.275C21.35 30.275 21.025 29.95 21.025 29.525V21C21.025 20.575 20.7 20.25 20.275 20.25C19.85 20.25 19.525 20.575 19.525 21V29.5C19.525 29.9 19.175 30.25 18.75 30.25H18.5C18.125 30.25 17.825 30 17.75 29.625L15.475 18.35C15.4 17.95 15 17.675 14.6 17.775C14.2 17.85 13.925 18.25 14.025 18.65L16.3 29.9C16.475 30.975 17.425 31.75 18.525 31.75H18.775C19.35 31.75 19.9 31.525 20.3 31.175C20.7 31.525 21.225 31.75 21.8 31.75C22.875 31.75 23.775 31 24 29.925L26.25 18.65C26.325 18.25 26.05 17.85 25.65 17.775Z" fill="#4F4F4F"/>
</svg>
