<svg width="32" height="32" viewBox="0 0 32 32" fill="none" xmlns="http://www.w3.org/2000/svg">
<g clip-path="url(#clip0_114_335)">
<path d="M6.27699 6.27753C3.69841 8.8562 2.24982 12.3536 2.24988 16.0003C2.24994 19.647 3.69866 23.1444 6.27733 25.723C8.856 28.3016 12.3534 29.7501 16.0001 29.7501C19.6468 29.75 23.1442 28.3013 25.7228 25.7226C28.3013 23.144 29.7499 19.6466 29.7499 15.9998C29.7498 12.3531 28.3011 8.85577 25.7224 6.27719C23.1438 3.69861 19.6464 2.25001 15.9996 2.25007C12.3529 2.25014 8.85557 3.69886 6.27699 6.27753V6.27753Z" fill="white"/>
<path d="M16 6C13.3478 6 10.8043 7.05357 8.92893 8.92893C7.05357 10.8043 6 13.3478 6 16C6 18.6522 7.05357 21.1957 8.92893 23.0711C10.8043 24.9464 13.3478 26 16 26C18.6522 26 21.1957 24.9464 23.0711 23.0711C24.9464 21.1957 26 18.6522 26 16C26 13.3478 24.9464 10.8043 23.0711 8.92893C21.1957 7.05357 18.6522 6 16 6V6Z" fill="#DFE8F4"/>
<path d="M15.9999 30.5C12.2749 30.5 8.57495 29.075 5.74995 26.25C0.0999518 20.6 0.0999518 11.4 5.74995 5.75C11.3999 0.100001 20.5999 0.100001 26.2499 5.75C26.5499 6.05 26.5499 6.525 26.2499 6.8C25.9499 7.1 25.4749 7.1 25.1999 6.8C20.1249 1.75 11.8749 1.75 6.79995 6.8C1.74995 11.875 1.74995 20.125 6.79995 25.2C11.8749 30.275 20.1249 30.275 25.1749 25.2C25.4749 24.9 25.9499 24.9 26.2249 25.2C26.5249 25.5 26.5249 25.975 26.2249 26.25C23.4249 29.075 19.7249 30.5 15.9999 30.5Z" fill="#4F4F4F"/>
<path d="M19.75 16.75H27.45L24.975 19.225C24.675 19.525 24.675 20 24.975 20.275C25.275 20.575 25.75 20.575 26.025 20.275L29.775 16.525C29.925 16.375 30 16.175 30 16C30 15.8 29.925 15.625 29.775 15.475L26.025 11.725C25.875 11.575 25.675 11.5 25.5 11.5C25.325 11.5 25.125 11.575 24.975 11.725C24.675 12.025 24.675 12.5 24.975 12.775L27.45 15.25H19.75C19.325 15.25 19 15.575 19 16C19 16.425 19.325 16.75 19.75 16.75ZM16 15.25C15.8011 15.25 15.6103 15.329 15.4697 15.4697C15.329 15.6103 15.25 15.8011 15.25 16C15.25 16.1989 15.329 16.3897 15.4697 16.5303C15.6103 16.671 15.8011 16.75 16 16.75C16.1989 16.75 16.3897 16.671 16.5303 16.5303C16.671 16.3897 16.75 16.1989 16.75 16C16.75 15.8011 16.671 15.6103 16.5303 15.4697C16.3897 15.329 16.1989 15.25 16 15.25V15.25Z" fill="#4F4F4F"/>
</g>
<defs>
<clipPath id="clip0_114_335">
<rect width="32" height="32" fill="white"/>
</clipPath>
</defs>
</svg>
