<svg width="24" height="24" viewBox="0 0 24 24" fill="none" xmlns="http://www.w3.org/2000/svg">
<path d="M12 3.75C11.6812 3.75 11.4375 3.99375 11.4375 4.3125V15.3375L8.64375 12.5438C8.41875 12.3188 8.0625 12.3188 7.85625 12.5438C7.63125 12.7688 7.63125 13.125 7.85625 13.3312L11.6062 17.0812C11.7187 17.1937 11.8687 17.25 12 17.25C12.1312 17.25 12.2812 17.1937 12.3937 17.0812L16.1437 13.3312C16.3687 13.1062 16.3687 12.75 16.1437 12.5438C15.9187 12.3188 15.5625 12.3188 15.3562 12.5438L12.5625 15.3375V4.3125C12.5625 3.99375 12.3187 3.75 12 3.75Z" fill="#4F4F4F"/>
<path d="M18.4125 21.3375C18.4125 21.0188 18.1687 20.775 17.85 20.775H6.14999C5.83124 20.775 5.58749 21.0188 5.58749 21.3375C5.58749 21.6563 5.83124 21.9 6.14999 21.9H17.85C18.1687 21.9 18.4125 21.6375 18.4125 21.3375Z" fill="#4F4F4F"/>
</svg>
