<svg width="32" height="32" viewBox="0 0 32 32" fill="none" xmlns="http://www.w3.org/2000/svg">
<path d="M16.1 31C23.325 28.025 26.775 19.775 23.825 12.55C16.6 15.525 13.15 23.775 16.1 31Z" fill="#ADF9D2"/>
<path d="M21.35 27.25C23.85 24.4 25.125 20.625 24.825 16.8C24.425 16.9 24.025 17.025 23.65 17.15C23.225 17.3 22.75 17.025 22.675 16.575C22.5 15.55 22.225 14.525 21.875 13.525C17.775 16 15.3 20.325 15.075 24.95C15.075 25.2 15.05 25.425 15.05 25.675C15.05 25.7 15.05 25.7 15.05 25.725C15.05 25.95 15.05 26.2 15.075 26.425V26.45C15.1 26.95 15.15 27.45 15.25 27.95C15.25 27.975 15.25 27.975 15.25 28C15.275 28.225 15.325 28.425 15.375 28.65C15.4 28.725 15.4 28.775 15.425 28.85C15.475 29.025 15.5 29.2 15.55 29.375C15.575 29.45 15.6 29.525 15.625 29.6C15.675 29.775 15.725 29.925 15.775 30.1C15.8 30.175 15.825 30.25 15.85 30.3C15.925 30.525 16.025 30.75 16.1 31C16.325 30.9 16.55 30.8 16.775 30.7C16.825 30.675 16.9 30.65 16.95 30.625C17.15 30.525 17.35 30.425 17.525 30.325C17.55 30.3 17.575 30.3 17.6 30.275C17.825 30.15 18.025 30.025 18.25 29.9C18.3 29.875 18.35 29.85 18.4 29.8C18.575 29.675 18.75 29.55 18.95 29.425C18.975 29.425 18.975 29.4 19 29.4C19.425 29.1 19.825 28.775 20.2 28.425L20.225 28.4C20.65 28.025 21 27.65 21.35 27.25C21.35 27.275 21.35 27.275 21.35 27.25C21.35 27.275 21.35 27.275 21.35 27.25Z" fill="#6DC289"/>
<path d="M16.1 31.75C15.8 31.75 15.525 31.575 15.4 31.275C13.9 27.6 13.9 23.55 15.425 19.875C16.95 16.2 19.825 13.35 23.5 11.85C23.875 11.7 24.325 11.875 24.475 12.25C25.975 15.925 25.975 19.975 24.45 23.65C22.925 27.325 20.05 30.175 16.375 31.675C16.3 31.725 16.2 31.75 16.1 31.75ZM23.4 13.55C20.425 14.975 18.125 17.4 16.825 20.45C15.525 23.5 15.45 26.875 16.525 29.975C19.5 28.55 21.8 26.125 23.1 23.075C24.4 20.025 24.475 16.675 23.4 13.55Z" fill="#4F4F4F"/>
<path d="M16.175 31C8.95001 28.025 5.50002 19.775 8.47501 12.55C15.7 15.525 19.15 23.775 16.175 31Z" fill="#ADF9D2"/>
<path d="M10.3 13.45C8.7 17.8 8.825 22.625 10.65 26.9C12.075 28.65 13.95 30.075 16.2 31C18.9 24.4 16.25 16.975 10.3 13.45Z" fill="white"/>
<path d="M16.075 31.75C15.975 31.75 15.875 31.725 15.8 31.7C15.425 31.55 15.225 31.1 15.4 30.725C16.75 27.425 16.75 23.775 15.375 20.475C14.1 17.425 11.775 14.975 8.80001 13.575C8.47501 14.5 8.25001 15.45 8.15001 16.425C8.10001 16.825 7.72501 17.125 7.32501 17.075C6.92501 17.025 6.62501 16.65 6.67501 16.25C6.82501 14.9 7.17501 13.55 7.70001 12.275C7.77501 12.1 7.92501 11.95 8.10001 11.875C8.27501 11.8 8.50001 11.8 8.67501 11.875C12.35 13.375 15.225 16.25 16.75 19.9C18.275 23.575 18.3 27.625 16.775 31.3C16.65 31.575 16.375 31.75 16.075 31.75Z" fill="#4F4F4F"/>
<path d="M16 31C22.825 31 28.375 25.45 28.375 18.625C26.675 18.625 25.05 18.975 23.55 19.6C22.35 20.1 21.25 21.55 20.275 22.4C17.65 24.675 16 27.275 16 31Z" fill="#ADF9D2"/>
<path d="M22.975 19.875C18.85 21.875 16 26.125 16 31C17.2 31 18.35 30.825 19.45 30.5C21.775 27.35 22.95 23.625 22.975 19.875Z" fill="#6DC289"/>
<path d="M16 31C9.175 31 3.625 25.45 3.625 18.625C10.45 18.625 16 24.175 16 31Z" fill="#ADF9D2"/>
<path d="M16 31C9.77499 24.775 9.77499 14.725 16 8.5C22.225 14.725 22.225 24.775 16 31Z" fill="#ADF9D2"/>
<path d="M17.45 27.3C17.325 27.3 17.2 27.275 17.1 27.2C16.725 27 16.6 26.55 16.8 26.175C18.325 23.325 18.775 20.025 18.1 16.85C18.025 16.45 18.275 16.05 18.675 15.95C19.075 15.875 19.475 16.125 19.575 16.525C20.325 20.05 19.8 23.7 18.125 26.85C17.975 27.175 17.725 27.3 17.45 27.3Z" fill="#6DC289"/>
<path d="M24.75 30.25H22.075C26.25 28.05 29.125 23.675 29.125 18.625C29.125 18.2 28.8 17.875 28.375 17.875C26.6 17.875 24.875 18.225 23.275 18.9C22.9 19.05 22.725 19.5 22.875 19.875C23.025 20.25 23.475 20.425 23.85 20.275C25.05 19.775 26.3 19.475 27.6 19.375C27.25 24.825 23.1 29.25 17.8 30.075C20.175 27.1 21.45 23.425 21.4 19.575C21.375 15.175 19.625 11.05 16.525 7.925C16.25 7.65 15.75 7.65 15.475 7.925C10.175 13.275 9.075 21.5 12.775 28C12.975 28.35 13.45 28.475 13.8 28.275C14.15 28.075 14.275 27.6 14.075 27.25C10.825 21.55 11.65 14.4 16 9.575C18.5 12.325 19.875 15.875 19.9 19.625C19.925 23.6 18.425 27.375 15.675 30.25C9.675 30.1 4.775 25.35 4.375 19.4C5.625 19.475 6.85 19.775 8.025 20.25C8.4 20.4 8.85 20.225 9 19.85C9.15 19.475 8.975 19.025 8.6 18.875C7.025 18.225 5.35 17.9 3.625 17.9C3.2 17.9 2.875 18.225 2.875 18.65C2.875 23.7 5.725 28.075 9.925 30.275H7.25C6.825 30.275 6.5 30.6 6.5 31.025C6.5 31.45 6.825 31.775 7.25 31.775H24.75C25.175 31.775 25.5 31.45 25.5 31.025C25.5 30.6 25.175 30.25 24.75 30.25Z" fill="#4F4F4F"/>
<path d="M28.5 30.25C28.3011 30.25 28.1103 30.329 27.9697 30.4697C27.829 30.6103 27.75 30.8011 27.75 31C27.75 31.1989 27.829 31.3897 27.9697 31.5303C28.1103 31.671 28.3011 31.75 28.5 31.75C28.6989 31.75 28.8897 31.671 29.0303 31.5303C29.171 31.3897 29.25 31.1989 29.25 31C29.25 30.8011 29.171 30.6103 29.0303 30.4697C28.8897 30.329 28.6989 30.25 28.5 30.25Z" fill="#4F4F4F"/>
</svg>
