<svg width="32" height="32" viewBox="0 0 32 32" fill="none" xmlns="http://www.w3.org/2000/svg">
<path d="M27.25 13.25H4.75V24C4.75 24.7 5.3 25.25 6 25.25H26C26.7 25.25 27.25 24.7 27.25 24V13.25Z" fill="white"/>
<path d="M18 6.75C17.337 6.75 16.7011 7.01339 16.2322 7.48223C15.7634 7.95107 15.5 8.58696 15.5 9.25C15.5 9.91304 15.7634 10.5489 16.2322 11.0178C16.7011 11.4866 17.337 11.75 18 11.75C18.663 11.75 19.2989 11.4866 19.7678 11.0178C20.2366 10.5489 20.5 9.91304 20.5 9.25C20.5 8.58696 20.2366 7.95107 19.7678 7.48223C19.2989 7.01339 18.663 6.75 18 6.75Z" fill="#6F4986"/>
<path d="M18 12.5C16.2 12.5 14.75 11.05 14.75 9.25C14.75 7.45 16.2 6 18 6C19.8 6 21.25 7.45 21.25 9.25C21.25 11.05 19.8 12.5 18 12.5ZM18 7.5C17.025 7.5 16.25 8.275 16.25 9.25C16.25 10.225 17.025 11 18 11C18.975 11 19.75 10.225 19.75 9.25C19.75 8.275 18.975 7.5 18 7.5Z" fill="#4F4F4F"/>
<path d="M15.5 9.25C15.5 10.625 14.375 11.75 13 11.75C12.25 11.75 11.55 11.4 11.1 10.875C10.725 10.45 10.5 9.875 10.5 9.25C10.5 7.875 11.625 6.75 13 6.75C14.375 6.75 15.5 7.875 15.5 9.25Z" fill="#B379DB"/>
<path d="M12.225 9.42499C12.175 9.42499 12.125 9.42499 12.075 9.39999C12.025 9.39999 11.975 9.37499 11.925 9.34999C11.875 9.32499 11.825 9.29999 11.8 9.27499C11.75 9.24999 11.725 9.22499 11.675 9.17499C11.65 9.14999 11.6 9.09999 11.575 9.04999C11.55 8.99999 11.525 8.97499 11.5 8.92499C11.475 8.87499 11.475 8.82499 11.45 8.77499C11.45 8.72499 11.425 8.67499 11.425 8.62499C11.425 8.42499 11.5 8.22499 11.65 8.09999C11.675 8.07499 11.725 8.02499 11.775 7.99999C11.825 7.97499 11.85 7.94999 11.9 7.92499C11.95 7.89999 12 7.89999 12.05 7.87499C12.3 7.82499 12.55 7.89999 12.725 8.07499C12.875 8.19999 12.95 8.39999 12.95 8.59999C12.95 8.64999 12.95 8.69999 12.925 8.74999C12.925 8.79999 12.9 8.84999 12.875 8.89999C12.85 8.94999 12.825 8.99999 12.8 9.02499C12.775 9.07499 12.75 9.09999 12.7 9.14999C12.625 9.32499 12.425 9.42499 12.225 9.42499ZM17.225 9.42499C17.025 9.42499 16.825 9.34999 16.7 9.19999C16.55 9.04999 16.475 8.87499 16.475 8.67499C16.475 8.47499 16.55 8.27499 16.7 8.14999C16.875 7.97499 17.125 7.89999 17.375 7.94999C17.425 7.94999 17.475 7.97499 17.525 7.99999C17.575 8.02499 17.625 8.04999 17.65 8.07499C17.7 8.09999 17.725 8.12499 17.775 8.17499C17.925 8.32499 18 8.49999 18 8.69999C18 8.89999 17.925 9.09999 17.775 9.22499C17.75 9.24999 17.7 9.29999 17.65 9.32499C17.6 9.34999 17.575 9.37499 17.525 9.39999C17.475 9.42499 17.425 9.42499 17.375 9.44999C17.325 9.47499 17.275 9.42499 17.225 9.42499Z" fill="white"/>
<path d="M13 12.5C12.575 12.5 12.25 12.175 12.25 11.75C12.25 11.325 12.575 11 13 11C13.975 11 14.75 10.225 14.75 9.25C14.75 8.275 13.975 7.5 13 7.5C12.025 7.5 11.25 8.275 11.25 9.25C11.25 9.675 10.925 10 10.5 10C10.075 10 9.75 9.675 9.75 9.25C9.75 7.45 11.2 6 13 6C14.8 6 16.25 7.45 16.25 9.25C16.25 11.05 14.8 12.5 13 12.5Z" fill="#4F4F4F"/>
<path d="M25.75 20H6.25C5.425 20 4.75 19.325 4.75 18.5C4.75 17.675 5.425 17 6.25 17H25.75C26.575 17 27.25 17.675 27.25 18.5C27.25 19.325 26.575 20 25.75 20Z" fill="#FFDD7D"/>
<path d="M27.25 19.25C26.825 19.25 26.5 18.925 26.5 18.5C26.5 18.075 26.175 17.75 25.75 17.75C25.325 17.75 25 17.425 25 17C25 16.575 25.325 16.25 25.75 16.25C27 16.25 28 17.25 28 18.5C28 18.925 27.675 19.25 27.25 19.25ZM13.5 20.75H4.75C4.325 20.75 4 20.425 4 20C4 19.575 4.325 19.25 4.75 19.25H13.5C13.925 19.25 14.25 19.575 14.25 20C14.25 20.425 13.925 20.75 13.5 20.75Z" fill="#4F4F4F"/>
<path d="M25.75 20.75C25.325 20.75 25 20.425 25 20C25 19.575 25.325 19.25 25.75 19.25C26.175 19.25 26.5 18.925 26.5 18.5C26.5 18.075 26.825 17.75 27.25 17.75C27.675 17.75 28 18.075 28 18.5C28 19.75 27 20.75 25.75 20.75Z" fill="#4F4F4F"/>
<path d="M25.75 25.25H6.25C5.425 25.25 4.75 24.575 4.75 23.75C4.75 22.925 5.425 22.25 6.25 22.25H25.75C26.575 22.25 27.25 22.925 27.25 23.75C27.25 24.575 26.575 25.25 25.75 25.25Z" fill="#FFDD7D"/>
<path d="M27.25 24.5C26.825 24.5 26.5 24.175 26.5 23.75C26.5 23.325 26.175 23 25.75 23C25.325 23 25 22.675 25 22.25C25 21.825 25.325 21.5 25.75 21.5C27 21.5 28 22.5 28 23.75C28 24.175 27.675 24.5 27.25 24.5Z" fill="#4F4F4F"/>
<path d="M25.75 26H4.75C4.325 26 4 25.675 4 25.25C4 24.825 4.325 24.5 4.75 24.5H25.75C26.175 24.5 26.5 24.175 26.5 23.75C26.5 23.325 26.825 23 27.25 23C27.675 23 28 23.325 28 23.75C28 25 27 26 25.75 26Z" fill="#4F4F4F"/>
<path d="M25.75 14.75H24.75C24.05 14.75 23.5 15.3 23.5 16V18.75C23.5 19.45 22.95 20 22.25 20C21.55 20 21 19.45 21 18.75V16C21 15.3 20.45 14.75 19.75 14.75C19.05 14.75 18.5 15.3 18.5 16V21.75C18.5 22.45 17.95 23 17.25 23C16.55 23 16 22.45 16 21.75V16C16 15.3 15.45 14.75 14.75 14.75H6.25C5.425 14.75 4.75 14.075 4.75 13.25C4.75 12.425 5.425 11.75 6.25 11.75H25.75C26.575 11.75 27.25 12.425 27.25 13.25C27.25 14.075 26.575 14.75 25.75 14.75Z" fill="#FFA6B5"/>
<path d="M16 16.75C15.575 16.75 15.25 16.425 15.25 16C15.25 15.725 15.025 15.5 14.75 15.5H12.35C11.925 15.5 11.6 15.175 11.6 14.75C11.6 14.325 11.925 14 12.35 14H14.75C15.85 14 16.75 14.9 16.75 16C16.75 16.425 16.425 16.75 16 16.75Z" fill="#4F4F4F"/>
<path d="M17.25 23.75C16.15 23.75 15.25 22.85 15.25 21.75V18.5C15.25 18.075 15.575 17.75 16 17.75C16.425 17.75 16.75 18.075 16.75 18.5V21.75C16.75 22.025 16.975 22.25 17.25 22.25C17.525 22.25 17.75 22.025 17.75 21.75V16C17.75 14.9 18.65 14 19.75 14C20.85 14 21.75 14.9 21.75 16C21.75 16.425 21.425 16.75 21 16.75C20.575 16.75 20.25 16.425 20.25 16C20.25 15.725 20.025 15.5 19.75 15.5C19.475 15.5 19.25 15.725 19.25 16V21.75C19.25 22.85 18.35 23.75 17.25 23.75Z" fill="#4F4F4F"/>
<path d="M22.25 20.75C21.15 20.75 20.25 19.85 20.25 18.75V18.5C20.25 18.075 20.575 17.75 21 17.75C21.425 17.75 21.75 18.075 21.75 18.5V18.75C21.75 19.025 21.975 19.25 22.25 19.25C22.525 19.25 22.75 19.025 22.75 18.75V16C22.75 14.9 23.65 14 24.75 14H25.75C26.175 14 26.5 13.675 26.5 13.25C26.5 12.825 26.175 12.5 25.75 12.5H6.25C5.825 12.5 5.5 12.825 5.5 13.25C5.5 13.675 5.825 14 6.25 14H12.35C12.775 14 13.1 14.325 13.1 14.75C13.1 15.175 12.775 15.5 12.35 15.5H6.25C5 15.5 4 14.5 4 13.25C4 12 5 11 6.25 11H25.75C27 11 28 12 28 13.25C28 14.5 27 15.5 25.75 15.5H24.75C24.475 15.5 24.25 15.725 24.25 16V18.75C24.25 19.85 23.35 20.75 22.25 20.75Z" fill="#4F4F4F"/>
</svg>
