<svg width="32" height="32" viewBox="0 0 32 32" fill="none" xmlns="http://www.w3.org/2000/svg">
<path d="M28.35 15.75C30 16.85 31 18.7 31 20.675V26C31 26.625 30.6 27.2 30 27.4L29.75 27.5H2.25L2 27.4C1.4 27.175 1 26.625 1 26V20.675C1 18.7 2 16.85 3.65 15.75H28.35Z" fill="#A5AA6A"/>
<path d="M8.25 24V27.5H29.75L30 27.4C30.6 27.175 31 26.625 31 26V21.5H10.75C9.375 21.5 8.25 22.625 8.25 24Z" fill="#7B7C3C"/>
<path d="M3.5 24C4.88071 24 6 22.8807 6 21.5C6 20.1193 4.88071 19 3.5 19C2.11929 19 1 20.1193 1 21.5C1 22.8807 2.11929 24 3.5 24Z" fill="white"/>
<path d="M28.5 24C29.8807 24 31 22.8807 31 21.5C31 20.1193 29.8807 19 28.5 19C27.1193 19 26 20.1193 26 21.5C26 22.8807 27.1193 24 28.5 24Z" fill="white"/>
<path d="M3.65002 15.75L6.60003 8.95C7.00003 8.05 7.85003 7.5 8.72503 7.5H23.2C24.1 7.5 24.95 8.075 25.35 8.95L28.35 15.75" fill="white"/>
<path d="M18.75 16.5H28.35L25.75 9.75H19.5C19.075 9.75 18.75 10.075 18.75 10.5V16.5Z" fill="#E4E4E7"/>
<path d="M7.5 27.5H2.5V31H7.5V27.5Z" fill="#4F4F4F"/>
<path d="M29.5 27.5H24.5V31H29.5V27.5Z" fill="#4F4F4F"/>
<path d="M31.75 15.425C31.7 15.025 31.325 14.725 30.925 14.775C30.4 14.825 29.7 14.925 28.875 15C28.875 14.975 28.85 14.95 28.85 14.925L26.075 8.85C25.575 7.75 24.5 7 23.275 6.95H23.025C20.3 6.775 18.75 6.7 16 6.7C13.25 6.7 11.7 6.775 8.97498 6.9H8.72498C7.49998 6.95 6.42498 7.7 5.92498 8.8L3.17498 14.9C3.17498 14.925 3.14998 14.95 3.14998 14.975C2.32498 14.9 1.62498 14.8 1.09998 14.75C0.699983 14.7 0.324983 15 0.274983 15.4C0.224983 15.8 0.524983 16.175 0.924983 16.225C3.49998 16.55 10.15 17.25 16 17.25C21.85 17.25 28.5 16.55 31.075 16.25C31.5 16.2 31.8 15.825 31.75 15.425ZM4.72498 15.125L7.29998 9.425C7.57498 8.825 8.14998 8.425 8.79998 8.4H9.04998C11.825 8.25 13.275 8.2 16 8.2C18.725 8.2 20.175 8.275 22.95 8.4H23.2C23.85 8.425 24.425 8.825 24.7 9.425L27.275 15.125C24.15 15.425 19.9 15.75 16 15.75C12.1 15.75 7.84998 15.425 4.72498 15.125Z" fill="#4F4F4F"/>
<path d="M28.5 18.25C26.7 18.25 25.25 19.7 25.25 21.5C25.25 23.3 26.7 24.75 28.5 24.75C29.15 24.75 29.75 24.55 30.25 24.225V26C30.25 26.425 29.925 26.75 29.5 26.75H2.5C2.075 26.75 1.75 26.425 1.75 26V24.225C2.25 24.55 2.85 24.75 3.5 24.75C5.3 24.75 6.75 23.3 6.75 21.5C6.75 19.7 5.3 18.25 3.5 18.25C1.7 18.25 0.25 19.7 0.25 21.5V26C0.25 26.975 0.875 27.8 1.75 28.125V31C1.75 31.425 2.075 31.75 2.5 31.75H7.5C7.925 31.75 8.25 31.425 8.25 31V28.25H23.75V31C23.75 31.425 24.075 31.75 24.5 31.75H29.5C29.925 31.75 30.25 31.425 30.25 31V28.125C31.125 27.825 31.75 26.975 31.75 26V21.5C31.75 19.7 30.3 18.25 28.5 18.25ZM3.5 19.75C4.475 19.75 5.25 20.525 5.25 21.5C5.25 22.475 4.475 23.25 3.5 23.25C2.525 23.25 1.75 22.475 1.75 21.5C1.75 20.525 2.525 19.75 3.5 19.75ZM6.75 30.25H3.25V28.25H6.75V30.25ZM28.75 30.25H25.25V28.25H28.75V30.25ZM28.5 23.25C27.525 23.25 26.75 22.475 26.75 21.5C26.75 20.525 27.525 19.75 28.5 19.75C29.475 19.75 30.25 20.525 30.25 21.5C30.25 22.475 29.475 23.25 28.5 23.25Z" fill="#4F4F4F"/>
</svg>
