<svg width="32" height="32" viewBox="0 0 32 32" fill="none" xmlns="http://www.w3.org/2000/svg">
<path d="M16 24H8.5L6 21.5L8.5 19H16" fill="white"/>
<path d="M16 17.5H26L28.5 15L26 12.5H16" fill="#4F4F4F"/>
<path d="M16 11H3.5L1 8.5L3.5 6H16" fill="white"/>
<path d="M16 31.75C15.575 31.75 15.25 31.425 15.25 31V3.5C15.25 3.075 15.575 2.75 16 2.75C16.425 2.75 16.75 3.075 16.75 3.5V31C16.75 31.425 16.425 31.75 16 31.75Z" fill="#4F4F4F"/>
<path d="M13.5 11.75H3.5C3.3 11.75 3.1 11.675 2.975 11.525L0.475 9.025C0.175 8.725 0.175 8.25 0.475 7.975L2.975 5.475C3.125 5.325 3.3 5.25 3.5 5.25H13.5C13.925 5.25 14.25 5.575 14.25 6C14.25 6.425 13.925 6.75 13.5 6.75H3.8L2.05 8.5L3.8 10.25H13.5C13.925 10.25 14.25 10.575 14.25 11C14.25 11.425 13.925 11.75 13.5 11.75Z" fill="#71C2FF"/>
<path d="M13.5 24.75H8.5C8.3 24.75 8.1 24.675 7.975 24.525L5.475 22.025C5.175 21.725 5.175 21.25 5.475 20.975L7.975 18.475C8.125 18.325 8.3 18.25 8.5 18.25H13.5C13.925 18.25 14.25 18.575 14.25 19C14.25 19.425 13.925 19.75 13.5 19.75H8.8L7.05 21.5L8.8 23.25H13.5C13.925 23.25 14.25 23.575 14.25 24C14.25 24.425 13.925 24.75 13.5 24.75Z" fill="#4F4F4F"/>
<path d="M26 18.25H16C15.575 18.25 15.25 17.925 15.25 17.5C15.25 17.075 15.575 16.75 16 16.75H25.7L27.45 15L25.7 13.25H16C15.575 13.25 15.25 12.925 15.25 12.5C15.25 12.075 15.575 11.75 16 11.75H26C26.2 11.75 26.4 11.825 26.525 11.975L29.025 14.475C29.325 14.775 29.325 15.25 29.025 15.525L26.525 18.025C26.4 18.175 26.2 18.25 26 18.25Z" fill="#4F4F4F"/>
<path d="M21 31.75H11C10.575 31.75 10.25 31.425 10.25 31C10.25 30.575 10.575 30.25 11 30.25H21C21.425 30.25 21.75 30.575 21.75 31C21.75 31.425 21.425 31.75 21 31.75Z" fill="#4F4F4F"/>
<path d="M24.75 31.75C24.55 31.75 24.35 31.675 24.225 31.525C24.2 31.5 24.15 31.45 24.125 31.425C24.1 31.375 24.075 31.35 24.05 31.3C24.025 31.25 24.025 31.2 24 31.15C24 31.1 23.975 31.05 23.975 31C23.975 30.95 23.975 30.9 24 30.85C24 30.8 24.025 30.75 24.05 30.7C24.075 30.65 24.1 30.625 24.125 30.575C24.15 30.525 24.175 30.5 24.225 30.45C24.4 30.275 24.65 30.2 24.9 30.25C24.95 30.25 25 30.275 25.05 30.3C25.1 30.325 25.15 30.35 25.175 30.375C25.225 30.4 25.25 30.425 25.3 30.475C25.45 30.625 25.525 30.8 25.525 31C25.525 31.05 25.525 31.1 25.5 31.15C25.5 31.2 25.475 31.25 25.45 31.3C25.425 31.35 25.4 31.4 25.375 31.425C25.35 31.475 25.325 31.5 25.275 31.525C25.25 31.55 25.2 31.6 25.15 31.625C25.1 31.65 25.075 31.675 25.025 31.7C24.975 31.725 24.925 31.725 24.875 31.75C24.85 31.75 24.8 31.75 24.75 31.75Z" fill="#4F4F4F"/>
</svg>
