<svg width="32" height="32" viewBox="0 0 32 32" fill="none" xmlns="http://www.w3.org/2000/svg">
<path d="M16 4.75C13.0163 4.75 10.1548 5.93526 8.04505 8.04505C5.93526 10.1548 4.75 13.0163 4.75 16C4.75 18.9837 5.93526 21.8452 8.04505 23.955C10.1548 26.0647 13.0163 27.25 16 27.25C18.9837 27.25 21.8452 26.0647 23.955 23.955C26.0647 21.8452 27.25 18.9837 27.25 16C27.25 13.0163 26.0647 10.1548 23.955 8.04505C21.8452 5.93526 18.9837 4.75 16 4.75Z" fill="#FCCA3D"/>
<path d="M16 26.5C15.575 26.5 15.25 26.175 15.25 25.75C15.25 25.325 15.575 25 16 25C20.975 25 25 20.975 25 16C25 15.575 25.325 15.25 25.75 15.25C26.175 15.25 26.5 15.575 26.5 16C26.5 21.8 21.8 26.5 16 26.5Z" fill="#FF6144"/>
<path d="M27.2 14.375C25.525 13.45 23.75 12.75 21.9 12.25C21.75 12.2 21.675 12.025 21.75 11.875C22.35 10.825 23.25 9.975 24.35 9.4C24.7 9.225 24.875 8.8 24.725 8.425C24.55 8.025 24.075 7.85 23.7 8.05C22.125 8.825 20.9 10.1 20.175 11.675C20.125 11.775 20.025 11.825 19.9 11.825C18.95 11.65 17.975 11.55 17 11.525C16.875 11.525 16.75 11.4 16.75 11.275V7.55C16.75 7.15 16.45 6.775 16.05 6.75C15.625 6.725 15.25 7.075 15.25 7.5V11.275C15.25 11.4 15.15 11.525 15 11.525C14.025 11.575 13.05 11.675 12.1 11.825C12 11.85 11.875 11.775 11.825 11.675C11.475 10.925 11.025 10.25 10.45 9.65C10.2 9.375 9.77501 9.3 9.47501 9.5C9.07501 9.775 9.02501 10.325 9.35001 10.65C9.70001 11.025 10 11.425 10.25 11.875C10.325 12.025 10.25 12.2 10.1 12.25C8.25001 12.75 6.45001 13.45 4.75001 14.4C4.40001 14.6 4.22501 15.05 4.40001 15.4C4.52501 15.675 4.80001 15.825 5.07501 15.825C5.20001 15.825 5.32501 15.8 5.45001 15.725C7.10001 14.825 8.85001 14.125 10.675 13.675C10.825 13.65 10.95 13.725 10.975 13.875C11.225 15.175 11.05 16.525 10.45 17.725C9.72501 19.225 8.45001 20.35 6.87501 20.9C6.62501 20.975 6.40001 21.075 6.15001 21.175C5.77501 21.325 5.55001 21.725 5.67501 22.1C5.77501 22.425 6.07501 22.65 6.40001 22.65C6.50001 22.65 6.60001 22.625 6.67501 22.6C6.85001 22.525 7.02501 22.45 7.22501 22.4C9.25001 21.75 10.875 20.325 11.8 18.4C12.525 16.875 12.75 15.2 12.425 13.6C12.4 13.45 12.5 13.325 12.625 13.3C13.4 13.175 14.175 13.1 14.95 13.075C15.1 13.075 15.2 13.175 15.2 13.325V27.25C15.2 27.65 15.5 28.025 15.9 28.05C16.325 28.075 16.7 27.725 16.7 27.3V13.275C16.7 13.125 16.825 13.025 16.95 13.025C17.725 13.05 18.525 13.15 19.275 13.25C19.425 13.275 19.5 13.4 19.475 13.55C19.175 15.175 19.375 16.85 20.1 18.35C21 20.225 22.575 21.625 24.525 22.3C24.6 22.325 24.7 22.35 24.775 22.35C25.1 22.35 25.425 22.125 25.5 21.775C25.6 21.4 25.375 21 25 20.875C23.425 20.325 22.175 19.2 21.45 17.7C20.875 16.475 20.7 15.15 20.925 13.85C20.95 13.7 21.1 13.625 21.225 13.65C23.025 14.1 24.775 14.775 26.4 15.7C26.775 15.9 27.25 15.75 27.425 15.375C27.725 15 27.55 14.575 27.2 14.375Z" fill="white"/>
<path d="M16 28C9.375 28 4 22.625 4 16C4 9.375 9.375 4 16 4C22.625 4 28 9.375 28 16C28 22.625 22.625 28 16 28ZM16 5.5C10.2 5.5 5.5 10.2 5.5 16C5.5 21.8 10.2 26.5 16 26.5C21.8 26.5 26.5 21.8 26.5 16C26.5 10.2 21.8 5.5 16 5.5Z" fill="#4F4F4F"/>
</svg>
