<svg width="32" height="32" viewBox="0 0 32 32" fill="none" xmlns="http://www.w3.org/2000/svg">
<path d="M17.225 13.175L15 10.75C15 10.75 15.675 10.05 15.7 9.79999C15.75 8.22499 13.05 0.574986 11.325 1.02499C10.4 1.24999 10.4 4.52499 9.55 4.82499L1 7.82499C1 7.82499 2.275 10.6 3.725 11.625C4.85 12.425 7.35 11.15 8.5 12.175C9.5 13.05 9.025 27.15 7.7 31L20.975 30.975C23.25 31 24.65 29.975 25.2 28.15C25.3 27.85 25.375 27.5 25.425 27.125C26.1 22.575 17.925 13.9 17.225 13.175Z" fill="white"/>
<path d="M7.725 31.75H5.675C5.25 31.75 4.925 31.425 4.925 31C4.925 30.575 5.25 30.25 5.675 30.25H7.175C7.65 28.425 8.075 24.85 8.25 20.825C8.45 16.075 8.225 13.25 8 12.7C7.6 12.425 6.825 12.5 6.075 12.575C5.1 12.675 4.1 12.775 3.325 12.225C1.7 11.1 0.375 8.24999 0.325 8.12499C0.225 7.92499 0.225 7.72499 0.325 7.52499C0.4 7.32499 0.575 7.17499 0.775 7.09999L9.25 4.12499C9.4 3.92499 9.575 3.19999 9.675 2.77499C9.975 1.59999 10.25 0.499993 11.15 0.274993C11.475 0.199993 12 0.199993 12.575 0.674993C14.4 2.17499 16.5 8.22499 16.45 9.82499C16.4 10.85 15.15 11.925 13.225 12.6C12.825 12.725 12.4 12.525 12.275 12.15C12.15 11.75 12.35 11.325 12.725 11.2C14.25 10.675 14.875 9.97499 14.95 9.74999C14.95 9.22499 14.5 7.37499 13.625 5.29999C12.6 2.84999 11.825 1.99999 11.525 1.82499C11.375 2.09999 11.2 2.77499 11.1 3.17499C10.825 4.24999 10.575 5.24999 9.8 5.54999L2.05 8.24999C2.55 9.14999 3.375 10.45 4.15 11.025C4.45 11.25 5.2 11.175 5.875 11.1C6.925 11 8.125 10.875 9 11.625C9.25 11.85 10.05 12.525 9.725 20.525C9.575 24.3 9.15 29.1 8.425 31.275C8.325 31.55 8.05 31.75 7.725 31.75Z" fill="#4F4F4F"/>
<path d="M17.775 12.675C17.5 12.375 17.025 12.375 16.725 12.65C16.425 12.925 16.425 13.4 16.7 13.7C19.675 16.825 25.2 23.625 24.7 26.975C24.65 27.275 24.575 27.6 24.5 27.9C24.05 29.45 22.55 30.425 21.05 30.2C20.675 30.15 20.325 30.025 20.025 29.85C19.35 29.45 19.125 28.675 19.05 28.25C18.9 27.475 19.05 26.625 19.4 26.175C19.65 25.85 19.6 25.375 19.275 25.125C18.95 24.875 18.475 24.925 18.225 25.25C17.6 26.05 17.35 27.3 17.575 28.525C17.7 29.2 17.95 29.775 18.3 30.25H14.75C14.325 30.25 14 30.575 14 31C14 31.425 14.325 31.75 14.75 31.75H21.5H21.525C23.5 31.725 25.325 30.35 25.925 28.35C26.025 27.975 26.125 27.6 26.175 27.225C26.875 22.475 19.3 14.275 17.775 12.675Z" fill="#4F4F4F"/>
<path d="M26.85 31.75C26.55 31.75 26.25 31.575 26.15 31.25C26 30.85 26.2 30.425 26.6 30.275C27.85 29.8 28.875 28.85 29.375 27.65C29.55 27.275 29.975 27.1 30.35 27.25C30.725 27.425 30.9 27.85 30.75 28.225C30.075 29.8 28.75 31.05 27.1 31.65C27.025 31.725 26.925 31.75 26.85 31.75Z" fill="#4F4F4F"/>
</svg>
