<svg width="32" height="32" viewBox="0 0 32 32" fill="none" xmlns="http://www.w3.org/2000/svg">
<path d="M28.5 27.25L23.5 22.25H6C4.625 22.25 3.5 21.125 3.5 19.75V3.5C3.5 2.125 4.625 1 6 1H26C27.375 1 28.5 2.125 28.5 3.5V27.25Z" fill="white"/>
<path d="M28.5 28C28.3 28 28.125 27.925 27.975 27.775L23.2 23H6C4.2 23 2.75 21.55 2.75 19.75V3.5C2.75 1.7 4.2 0.25 6 0.25H26C27.8 0.25 29.25 1.7 29.25 3.5V27.25C29.25 27.55 29.075 27.825 28.775 27.95C28.7 27.975 28.6 28 28.5 28ZM6 1.75C5.025 1.75 4.25 2.525 4.25 3.5V19.75C4.25 20.725 5.025 21.5 6 21.5H23.5C23.7 21.5 23.9 21.575 24.025 21.725L27.75 25.45V3.5C27.75 2.525 26.975 1.75 26 1.75H6ZM28.5 31.75H9.75C9.325 31.75 9 31.425 9 31C9 30.575 9.325 30.25 9.75 30.25H28.5C28.925 30.25 29.25 30.575 29.25 31C29.25 31.425 28.925 31.75 28.5 31.75Z" fill="#4F4F4F"/>
<path d="M22 10.5H10C9.575 10.5 9.25 10.175 9.25 9.75C9.25 9.325 9.575 9 10 9H22C22.425 9 22.75 9.325 22.75 9.75C22.75 10.175 22.425 10.5 22 10.5ZM18.25 14.25H10C9.575 14.25 9.25 13.925 9.25 13.5C9.25 13.075 9.575 12.75 10 12.75H18.25C18.675 12.75 19 13.075 19 13.5C19 13.925 18.675 14.25 18.25 14.25ZM22 12.75C21.8011 12.75 21.6103 12.829 21.4697 12.9697C21.329 13.1103 21.25 13.3011 21.25 13.5C21.25 13.6989 21.329 13.8897 21.4697 14.0303C21.6103 14.171 21.8011 14.25 22 14.25C22.1989 14.25 22.3897 14.171 22.5303 14.0303C22.671 13.8897 22.75 13.6989 22.75 13.5C22.75 13.3011 22.671 13.1103 22.5303 12.9697C22.3897 12.829 22.1989 12.75 22 12.75Z" fill="#71C2FF"/>
<path d="M6 30.25C5.80109 30.25 5.61032 30.329 5.46967 30.4697C5.32902 30.6103 5.25 30.8011 5.25 31C5.25 31.1989 5.32902 31.3897 5.46967 31.5303C5.61032 31.671 5.80109 31.75 6 31.75C6.19891 31.75 6.38968 31.671 6.53033 31.5303C6.67098 31.3897 6.75 31.1989 6.75 31C6.75 30.8011 6.67098 30.6103 6.53033 30.4697C6.38968 30.329 6.19891 30.25 6 30.25Z" fill="#4F4F4F"/>
</svg>
