<svg width="24" height="24" viewBox="0 0 24 24" fill="none" xmlns="http://www.w3.org/2000/svg">
<path d="M15.75 23.25H8.25C6.17812 23.25 4.5 21.5719 4.5 19.5V7.125H19.5V19.5C19.5 21.5719 17.8219 23.25 15.75 23.25Z" fill="white"/>
<path d="M19.5 7.125H4.5C3.465 7.125 2.625 6.285 2.625 5.25C2.625 4.215 3.465 3.375 4.5 3.375H19.5C20.535 3.375 21.375 4.215 21.375 5.25C21.375 6.285 20.535 7.125 19.5 7.125Z" fill="white"/>
<path d="M21.9375 5.25C21.9375 3.90562 20.8444 2.8125 19.5 2.8125H4.5C3.15562 2.8125 2.0625 3.90562 2.0625 5.25C2.0625 6.59438 3.15562 7.6875 4.5 7.6875H18.9375V19.5C18.9375 21.2569 17.5069 22.6875 15.75 22.6875H8.25C6.49312 22.6875 5.0625 21.2569 5.0625 19.5V9.75C5.0625 9.43875 4.81125 9.1875 4.5 9.1875C4.18875 9.1875 3.9375 9.43875 3.9375 9.75V19.5C3.9375 21.8775 5.8725 23.8125 8.25 23.8125H15.75C18.1275 23.8125 20.0625 21.8775 20.0625 19.5V7.62C21.135 7.365 21.9375 6.39937 21.9375 5.25ZM19.5 6.5625H4.5C3.77625 6.5625 3.1875 5.97375 3.1875 5.25C3.1875 4.52625 3.77625 3.9375 4.5 3.9375H19.5C20.2237 3.9375 20.8125 4.52625 20.8125 5.25C20.8125 5.97375 20.2237 6.5625 19.5 6.5625Z" fill="#4F4F4F"/>
<path d="M14.8125 1.3125H9.1875C8.87625 1.3125 8.625 1.06125 8.625 0.75C8.625 0.43875 8.87625 0.1875 9.1875 0.1875H14.8125C15.1238 0.1875 15.375 0.43875 15.375 0.75C15.375 1.06125 15.1238 1.3125 14.8125 1.3125Z" fill="#4F4F4F"/>
<path d="M9.375 20.0625C9.06375 20.0625 8.8125 19.8112 8.8125 19.5V10.875C8.8125 10.5637 9.06375 10.3125 9.375 10.3125C9.68625 10.3125 9.9375 10.5637 9.9375 10.875V19.5C9.9375 19.8112 9.68625 20.0625 9.375 20.0625Z" fill="#71C2FF"/>
<path d="M14.625 20.0625C14.3137 20.0625 14.0625 19.8112 14.0625 19.5V10.875C14.0625 10.5637 14.3137 10.3125 14.625 10.3125C14.9362 10.3125 15.1875 10.5637 15.1875 10.875V19.5C15.1875 19.8112 14.9362 20.0625 14.625 20.0625Z" fill="#71C2FF"/>
</svg>
