<svg width="32" height="32" viewBox="0 0 32 32" fill="none" xmlns="http://www.w3.org/2000/svg">
<path d="M16.425 23.275C17.65 23.275 19.825 23.425 21.475 24.4C24.95 26.475 25.775 29.1 27.5 28.975C29.275 28.85 30.25 26.4 30.725 23.825C31.925 17.175 28.6 5.05 22.7 5.9C21.025 6.125 17.9 8.775 15.95 8.775C14.025 8.775 10.875 6.15 9.19998 5.9C3.32497 5.075 -2.78354e-05 17.2 1.19997 23.85C1.67497 26.425 2.64997 28.875 4.42497 29C6.14997 29.125 6.97497 26.5 10.45 24.425C12.1 23.425 14.275 23.275 15.5 23.3H16.425V23.275Z" fill="white"/>
<path d="M9 19.25C10.933 19.25 12.5 17.683 12.5 15.75C12.5 13.817 10.933 12.25 9 12.25C7.067 12.25 5.5 13.817 5.5 15.75C5.5 17.683 7.067 19.25 9 19.25Z" fill="#E8E8F9"/>
<path d="M20.5 19.75H18.5C17.125 19.75 16 20.875 16 22.25V23.275H16.425C17.65 23.275 19.825 23.425 21.475 24.4C24.95 26.475 25.775 29.1 27.5 28.975C29.275 28.85 30.25 26.4 30.725 23.825C31.575 19.2 30.225 11.95 27.35 8.225H25.5C24.125 8.225 23 9.35 23 10.725V17.225C23 18.625 21.875 19.75 20.5 19.75Z" fill="#C7C3F4"/>
<path d="M9 20C6.65 20 4.75 18.1 4.75 15.75C4.75 13.4 6.65 11.5 9 11.5C11.35 11.5 13.25 13.4 13.25 15.75C13.25 18.1 11.35 20 9 20ZM9 13C7.475 13 6.25 14.225 6.25 15.75C6.25 17.275 7.475 18.5 9 18.5C10.525 18.5 11.75 17.275 11.75 15.75C11.75 14.225 10.525 13 9 13Z" fill="#4F4F4F"/>
<path d="M27.375 29.75C26.2 29.75 25.4 28.9 24.45 27.9C23.65 27.05 22.625 26 21.075 25.05C19.55 24.15 17.5 24.025 16.4 24.025H15.5C14.525 24.025 13.075 24.125 11.775 24.6C11.375 24.75 10.95 24.55 10.8 24.15C10.65 23.75 10.85 23.325 11.25 23.175C12.775 22.6 14.4 22.5 15.525 22.5H16.425C17.65 22.5 20.025 22.65 21.875 23.725C23.625 24.775 24.7 25.9 25.575 26.825C26.45 27.75 26.925 28.225 27.475 28.2C28.575 28.125 29.5 26.475 30.025 23.675C31.05 18.05 28.85 10.75 26.225 8.025C25.175 6.925 24.025 6.45 22.85 6.625C22.25 6.7 21.225 7.275 20.25 7.825C18.75 8.675 17.25 9.5 16 9.525H15.975C14.7 9.525 13.2 8.675 11.725 7.85C10.75 7.3 9.72499 6.725 9.12499 6.65C7.94999 6.475 6.79999 6.95 5.74999 8.05C3.09999 10.8 0.924995 18.075 1.94999 23.7C2.44999 26.5 3.37499 28.15 4.49999 28.225C5.02499 28.25 5.52499 27.775 6.39999 26.85C6.72499 26.525 7.07499 26.125 7.49999 25.75C7.79999 25.475 8.27499 25.475 8.54999 25.775C8.82499 26.075 8.82499 26.55 8.52499 26.825C8.14999 27.2 7.79999 27.55 7.47499 27.875C6.49999 28.9 5.64999 29.8 4.39999 29.7C2.49999 29.575 1.14999 27.575 0.499995 23.95C-5.31971e-06 21.45 0.174995 18.15 0.899994 14.95C1.69999 11.525 3.02499 8.7 4.67499 7C6.07499 5.55 7.67499 4.925 9.34999 5.15C10.225 5.275 11.325 5.875 12.475 6.525C13.7 7.2 15.075 8 15.975 8C16.85 8 18.25 7.225 19.5 6.525C20.65 5.875 21.75 5.275 22.625 5.15C24.3 4.925 25.9 5.55 27.3 7C28.95 8.7 30.275 11.525 31.075 14.95C31.825 18.15 31.975 21.425 31.5 23.975C30.85 27.6 29.475 29.6 27.6 29.725C27.5 29.75 27.425 29.75 27.375 29.75Z" fill="#4F4F4F"/>
<path d="M26.25 15H23.75V12.5C23.75 12.075 23.425 11.75 23 11.75C22.575 11.75 22.25 12.075 22.25 12.5V15H19.75C19.325 15 19 15.325 19 15.75C19 16.175 19.325 16.5 19.75 16.5H22.25V19C22.25 19.425 22.575 19.75 23 19.75C23.425 19.75 23.75 19.425 23.75 19V16.5H26.25C26.675 16.5 27 16.175 27 15.75C27 15.325 26.675 15 26.25 15Z" fill="#4F4F4F"/>
</svg>
