<svg width="32" height="32" viewBox="0 0 32 32" fill="none" xmlns="http://www.w3.org/2000/svg">
<path d="M30.1 10.775C29.6 9.8 29.475 9.675 28.75 8.825C24.65 3.95 16.675 2.05 10 4.7C2.77501 7.575 -0.474993 14.7 2.62501 20.85C5.00001 25.55 10.375 28.275 16.125 28.4C19.6 28.475 22.425 25.65 22.425 22.175V19.675C22.425 18.3 23.55 17.175 24.925 17.175H26.475C27.175 17.175 27.8 16.9 28.425 16.525C30.4 15.3 31.075 12.8 30.1 10.775ZM17.275 24.4C15.825 25.325 13.875 24.875 12.975 23.425C12.05 21.975 12.5 20.025 13.95 19.125C15.4 18.2 17.35 18.65 18.25 20.1C19.175 21.55 18.725 23.475 17.275 24.4Z" fill="white"/>
<path d="M15.625 25.625C15.325 25.625 15.05 25.6 14.75 25.525C13.75 25.3 12.875 24.675 12.325 23.8C11.2 22 11.75 19.6 13.55 18.475C15.35 17.35 17.75 17.9 18.9 19.7C20.025 21.5 19.475 23.9 17.675 25.05C17.05 25.425 16.35 25.625 15.625 25.625ZM15.6 19.375C15.175 19.375 14.725 19.5 14.35 19.725C13.25 20.425 12.9 21.9 13.6 23C13.925 23.525 14.475 23.9 15.075 24.05C15.7 24.2 16.325 24.075 16.875 23.75C17.975 23.05 18.325 21.575 17.625 20.475C17.175 19.775 16.4 19.375 15.6 19.375Z" fill="#4F4F4F"/>
<path d="M16.15 29.15C9.79997 29.15 4.49997 26.175 1.97497 21.2C0.499973 18.275 0.299973 15 1.44997 11.975C2.77497 8.475 5.79997 5.575 9.72497 4.025C16.525 1.325 24.95 3.175 29.325 8.35L29.55 8.625C30.1 9.25 30.3 9.5 30.775 10.45C31.925 12.875 31.1 15.75 28.825 17.175C28.25 17.525 27.475 17.95 26.5 17.95H24.95C24.275 17.95 23.625 18.35 23.35 18.975C23.175 19.35 22.725 19.525 22.35 19.35C21.975 19.175 21.8 18.725 21.975 18.35C22.5 17.2 23.675 16.45 24.95 16.45H26.5C26.95 16.45 27.425 16.275 28.05 15.9C29.675 14.875 30.275 12.825 29.45 11.1C29.05 10.325 28.95 10.2 28.45 9.6L28.225 9.325C24.2 4.6 16.525 2.925 10.275 5.4C6.72497 6.8 4.02497 9.4 2.84997 12.5C1.84997 15.125 2.02497 17.975 3.29997 20.525C5.54997 25 10.35 27.65 16.15 27.65C18.875 27.65 21.2 25.725 21.625 23.1C21.7 22.7 22.075 22.425 22.5 22.475C22.9 22.55 23.175 22.925 23.125 23.35C22.55 26.7 19.625 29.15 16.15 29.15Z" fill="#4F4F4F"/>
<path d="M17.0963 6.23571C16.782 6.43288 16.5097 6.69002 16.2948 6.99244C16.0799 7.29486 15.9267 7.63665 15.844 7.99828C15.7612 8.35991 15.7504 8.7343 15.8123 9.10008C15.8742 9.46587 16.0076 9.81587 16.2048 10.1301C16.4019 10.4444 16.6591 10.7167 16.9615 10.9316C17.2639 11.1464 17.6057 11.2997 17.9673 11.3824C18.329 11.4652 18.7033 11.476 19.0691 11.4141C19.4349 11.3522 19.7849 11.2188 20.0992 11.0216C20.4134 10.8245 20.6857 10.5673 20.9006 10.2649C21.1155 9.96248 21.2687 9.62069 21.3515 9.25906C21.4343 8.89743 21.445 8.52304 21.3831 8.15726C21.3212 7.79147 21.1878 7.44147 20.9907 7.12722C20.7935 6.81297 20.5364 6.54064 20.2339 6.32576C19.9315 6.11089 19.5897 5.95769 19.2281 5.8749C18.8665 5.79212 18.4921 5.78138 18.1263 5.84328C17.7605 5.90519 17.4105 6.03854 17.0963 6.23571Z" fill="#ADF9D2"/>
<path d="M23.3463 9.48541C22.7117 9.88362 22.2612 10.5176 22.094 11.248C21.9268 11.9783 22.0566 12.7452 22.4548 13.3798C22.853 14.0145 23.487 14.4649 24.2174 14.6321C24.9477 14.7993 25.7146 14.6695 26.3492 14.2713C26.9839 13.8731 27.4344 13.2391 27.6015 12.5088C27.7687 11.7784 27.6389 11.0116 27.2407 10.3769C26.8425 9.74226 26.2085 9.29179 25.4782 9.1246C24.7478 8.95741 23.981 9.0872 23.3463 9.48541Z" fill="#ADF9D2"/>
<path d="M10.0683 7.33685C9.43366 7.73506 8.98319 8.36908 8.816 9.09942C8.64881 9.82976 8.7786 10.5966 9.17681 11.2313C9.57502 11.8659 10.209 12.3164 10.9394 12.4836C11.6697 12.6508 12.4366 12.521 13.0712 12.1228C13.7059 11.7246 14.1563 11.0905 14.3235 10.3602C14.4907 9.62986 14.3609 8.86302 13.9627 8.22836C13.5645 7.59371 12.9305 7.14324 12.2002 6.97605C11.4698 6.80886 10.703 6.93864 10.0683 7.33685Z" fill="#ADF9D2"/>
<path d="M5.34957 12.8625C4.71491 13.2607 4.26444 13.8947 4.09725 14.6251C3.93006 15.3554 4.05985 16.1223 4.45806 16.7569C4.85627 17.3916 5.49028 17.842 6.22063 18.0092C6.95097 18.1764 7.71782 18.0466 8.35247 17.6484C8.98713 17.2502 9.4376 16.6162 9.60479 15.8859C9.77198 15.1555 9.6422 14.3887 9.24399 13.754C8.84578 13.1194 8.21176 12.6689 7.48141 12.5017C6.75107 12.3345 5.98422 12.4643 5.34957 12.8625Z" fill="#ADF9D2"/>
</svg>
