<svg width="24" height="24" viewBox="0 0 24 24" fill="none" xmlns="http://www.w3.org/2000/svg">
<path d="M6.37505 16.8375L5.04381 18.1687C4.81881 18.3937 4.81881 18.75 5.04381 18.9562C5.26881 19.1812 5.62506 19.1812 5.83131 18.9562L7.16255 17.625C7.38755 17.4 7.38755 17.0437 7.16255 16.8375C7.05005 16.725 6.90005 16.6688 6.7688 16.6688C6.63755 16.6688 6.4688 16.725 6.37505 16.8375Z" fill="#444B54"/>
<path d="M9.80625 14.9812L18 6.78749L18 11.0625C18 11.3812 18.2438 11.625 18.5625 11.625C18.8813 11.625 19.125 11.3812 19.125 11.0625L19.125 5.43749C19.125 5.11874 18.8813 4.87499 18.5625 4.87499L12.9375 4.87499C12.6188 4.87499 12.375 5.11874 12.375 5.43749C12.375 5.75624 12.6188 5.99999 12.9375 5.99999L17.2125 5.99999L9.01875 14.1937C8.79375 14.4187 8.79375 14.775 9.01875 14.9812C9.24375 15.2062 9.6 15.2062 9.80625 14.9812Z" fill="#444B54"/>
</svg>
