<svg width="32" height="32" viewBox="0 0 32 32" fill="none" xmlns="http://www.w3.org/2000/svg">
<path d="M3.75 31C3.75 29.625 4.875 28.5 6.25 28.5C6.25 27.125 7.375 26 8.75 26V31H3.75ZM28.825 20.8L17.5 9.5L6.175 20.8L4.075 18.7L17.5 5.25L30.925 18.7L28.825 20.8Z" fill="white"/>
<path d="M26.25 29.25V18.1L17.5 9.5L8.75 18.25V31H27.75V30.75C27.75 29.925 27.075 29.25 26.25 29.25Z" fill="white"/>
<path d="M14.75 20H20.25V31H14.75V20Z" fill="#71C2FF"/>
<path d="M20.25 31.75H14.75C14.325 31.75 14 31.425 14 31V20C14 19.575 14.325 19.25 14.75 19.25H20.25C20.675 19.25 21 19.575 21 20V31C21 31.425 20.675 31.75 20.25 31.75ZM15.5 30.25H19.5V20.75H15.5V30.25Z" fill="#71C2FF"/>
<path d="M31.475 18.15L18.025 4.72499C17.75 4.44999 17.25 4.44999 16.975 4.72499L3.525 18.15C3.225 18.45 3.225 18.925 3.525 19.2L5.65 21.325C5.8 21.475 5.975 21.55 6.175 21.55C6.375 21.55 6.575 21.475 6.7 21.325L17.5 10.55L25.5 18.55V28.625C24.775 28.875 24.225 29.5 24.05 30.25H9.5V23.5C9.5 23.075 9.175 22.75 8.75 22.75C8.325 22.75 8 23.075 8 23.5V25.35C6.775 25.65 5.825 26.6 5.575 27.825C4.35 28.075 3.375 29.05 3.1 30.25H1C0.575 30.25 0.25 30.575 0.25 31C0.25 31.425 0.575 31.75 1 31.75H24.75C25.175 31.75 25.5 31.425 25.5 31V30.75C25.5 30.325 25.825 30 26.25 30C26.675 30 27 30.325 27 30.75V31C27 31.425 27.325 31.75 27.75 31.75H28.5C28.925 31.75 29.25 31.425 29.25 31C29.25 30.575 28.925 30.25 28.5 30.25H28.45C28.275 29.5 27.725 28.875 27 28.625V20.05L28.275 21.325C28.425 21.475 28.6 21.55 28.8 21.55C29 21.55 29.2 21.475 29.325 21.325L31.45 19.2C31.75 18.925 31.75 18.45 31.475 18.15ZM6.25 29.25C6.675 29.25 7 28.925 7 28.5C7 27.8 7.4 27.2 8 26.925V30.25H4.675C4.95 29.65 5.55 29.25 6.25 29.25ZM28.825 19.75L18.025 8.97499C17.875 8.82499 17.7 8.74999 17.5 8.74999C17.3 8.74999 17.125 8.82499 16.975 8.97499L6.175 19.75L5.125 18.7L17.5 6.32499L29.875 18.7L28.825 19.75ZM31 30.25C30.8011 30.25 30.6103 30.329 30.4697 30.4697C30.329 30.6103 30.25 30.8011 30.25 31C30.25 31.1989 30.329 31.3897 30.4697 31.5303C30.6103 31.671 30.8011 31.75 31 31.75C31.1989 31.75 31.3897 31.671 31.5303 31.5303C31.671 31.3897 31.75 31.1989 31.75 31C31.75 30.8011 31.671 30.6103 31.5303 30.4697C31.3897 30.329 31.1989 30.25 31 30.25Z" fill="#4F4F4F"/>
</svg>
