<svg width="32" height="32" viewBox="0 0 32 32" fill="none" xmlns="http://www.w3.org/2000/svg">
<path d="M2.82501 23.7L6.27501 4.15C6.47501 3.075 7.50001 2.35 8.57501 2.55L28.1 6C29.175 6.2 29.9 7.225 29.7 8.3L26.25 27.85C26.05 28.925 25.025 29.65 23.95 29.45L4.42501 26C3.35001 25.825 2.62501 24.775 2.82501 23.7Z" fill="#B8ABC9"/>
<path d="M24 28.275H4.14999C3.04999 28.275 2.17499 27.375 2.17499 26.3V6.45C2.17499 5.35 3.07499 4.475 4.14999 4.475H24C25.1 4.475 25.975 5.375 25.975 6.45V26.3C26 27.4 25.1 28.275 24 28.275Z" fill="#F7F7FB"/>
<path d="M22.1 21.35H6.225C5.125 21.35 4.25 20.45 4.25 19.375V8.425C4.25 7.325 5.15 6.45 6.225 6.45H22.1C23.2 6.45 24.075 7.35 24.075 8.425V19.35C24.075 20.45 23.2 21.35 22.1 21.35Z" fill="#D6EEF2"/>
<path d="M6.22502 21.35H13.975L9.40003 15.875L5.40002 21.175C5.65002 21.275 5.92502 21.35 6.22502 21.35Z" fill="#458074"/>
<path d="M11.375 21.35H22.1C22.525 21.35 22.925 21.2 23.25 20.975L17.325 13.1L11.375 21.35Z" fill="#65BFAF"/>
<path d="M12.6 10.55C12.2022 10.55 11.8206 10.708 11.5393 10.9893C11.258 11.2706 11.1 11.6522 11.1 12.05C11.1 12.4478 11.258 12.8294 11.5393 13.1107C11.8206 13.392 12.2022 13.55 12.6 13.55C12.9978 13.55 13.3793 13.392 13.6606 13.1107C13.9419 12.8294 14.1 12.4478 14.1 12.05C14.1 11.6522 13.9419 11.2706 13.6606 10.9893C13.3793 10.708 12.9978 10.55 12.6 10.55Z" fill="white"/>
<path d="M24.075 29.025H4.225C2.725 29.025 1.5 27.8 1.5 26.3V6.45C1.5 4.95 2.725 3.725 4.225 3.725H24.075C25.575 3.725 26.8 4.95 26.8 6.45V26.3C26.825 27.8 25.6 29.025 24.075 29.025ZM4.225 5.225C3.55 5.225 3 5.775 3 6.45V26.3C3 26.975 3.55 27.525 4.225 27.525H24.075C24.75 27.525 25.3 26.975 25.3 26.3V6.45C25.3 5.775 24.75 5.225 24.075 5.225H4.225Z" fill="#454B54"/>
</svg>
