<svg width="24" height="24" viewBox="0 0 24 24" fill="none" xmlns="http://www.w3.org/2000/svg">
<path d="M21.375 23.25H2.625C1.59375 23.25 0.75 22.4062 0.75 21.375V2.625C0.75 1.59375 1.59375 0.75 2.625 0.75H21.375C22.4062 0.75 23.25 1.59375 23.25 2.625V21.375C23.25 22.4062 22.4062 23.25 21.375 23.25Z" fill="white"/>
<path d="M13.875 5.4375H20.8125C20.8125 5.4375 20.9813 5.8125 20.8125 5.8125C20.4938 5.8125 20.25 6.05625 20.25 6.375V13.5188C20.25 14.0063 19.6688 14.2688 19.3125 13.9313L18 12.7313C17.775 12.525 17.4563 12.525 17.2313 12.7313L15.9375 13.9313C15.5813 14.2688 15 14.0063 15 13.5188V6.375C15 6.05625 14.7563 5.8125 14.4375 5.8125L13.875 5.4375Z" fill="#FF5576"/>
<path d="M3 3.5625C3.31066 3.5625 3.5625 3.31066 3.5625 3C3.5625 2.68934 3.31066 2.4375 3 2.4375C2.68934 2.4375 2.4375 2.68934 2.4375 3C2.4375 3.31066 2.68934 3.5625 3 3.5625Z" fill="#4F4F4F"/>
<path d="M4.875 3.5625C5.18566 3.5625 5.4375 3.31066 5.4375 3C5.4375 2.68934 5.18566 2.4375 4.875 2.4375C4.56434 2.4375 4.3125 2.68934 4.3125 3C4.3125 3.31066 4.56434 3.5625 4.875 3.5625Z" fill="#4F4F4F"/>
<path d="M6.75 3.5625C7.06066 3.5625 7.3125 3.31066 7.3125 3C7.3125 2.68934 7.06066 2.4375 6.75 2.4375C6.43934 2.4375 6.1875 2.68934 6.1875 3C6.1875 3.31066 6.43934 3.5625 6.75 3.5625Z" fill="#4F4F4F"/>
<path d="M21.375 23.8125H2.625C1.275 23.8125 0.1875 22.725 0.1875 21.375V7.6875C0.1875 7.36875 0.43125 7.125 0.75 7.125C1.06875 7.125 1.3125 7.36875 1.3125 7.6875V21.375C1.3125 22.1063 1.89375 22.6875 2.625 22.6875H21.375C22.1063 22.6875 22.6875 22.1063 22.6875 21.375V2.625C22.6875 1.89375 22.1063 1.3125 21.375 1.3125H2.625C1.89375 1.3125 1.3125 1.89375 1.3125 2.625V4.6875H20.8125C21.1313 4.6875 21.375 4.93125 21.375 5.25C21.375 5.56875 21.1313 5.8125 20.8125 5.8125H0.75C0.43125 5.8125 0.1875 5.56875 0.1875 5.25V2.625C0.1875 1.275 1.275 0.1875 2.625 0.1875H21.375C22.725 0.1875 23.8125 1.275 23.8125 2.625V21.375C23.8125 22.725 22.725 23.8125 21.375 23.8125Z" fill="#4F4F4F"/>
</svg>
