<svg width="32" height="32" viewBox="0 0 32 32" fill="none" xmlns="http://www.w3.org/2000/svg">
<path d="M29.5025 13.5H27.5375C27.44 13.5 27.345 13.5075 27.2475 13.5125L27.25 13.5V6C27.25 1.8575 23.8925 1 19.75 1H12.25C8.10752 1 4.75003 1.8575 4.75003 6V13.5L4.75503 13.5125C4.65753 13.5075 4.56003 13.5 4.46253 13.5H2.49753C1.71753 13.5 1.12753 14.2075 1.26753 14.9725L2.46503 21.56L3.50003 27.25H28.5L29.535 21.56L30.7325 14.9725C30.8725 14.2075 30.2825 13.5 29.5025 13.5Z" fill="#89C9A3"/>
<path d="M8.05753 19.685C7.70753 19.685 7.39503 19.4375 7.32253 19.0825L7.08503 17.9C6.92253 17.09 6.40503 16.4125 5.66253 16.0375C5.29253 15.85 5.14503 15.4 5.33253 15.03C5.52003 14.66 5.97003 14.5125 6.34003 14.7C7.49503 15.285 8.30503 16.345 8.55753 17.6075L8.79503 18.79C8.87753 19.195 8.61253 19.5925 8.20753 19.6725C8.15503 19.68 8.10503 19.685 8.05753 19.685Z" fill="#006475"/>
<path d="M22.6325 18.5875C22.585 18.5875 22.5375 18.5825 22.49 18.575C19.545 18.0075 16.4625 17.8325 13.4475 18.0525C13.035 18.08 12.675 17.7725 12.645 17.36C12.615 16.9475 12.925 16.5875 13.3375 16.5575C16.485 16.325 19.7 16.51 22.775 17.1C23.1825 17.1775 23.4475 17.5725 23.37 17.9775C23.3 18.3375 22.985 18.5875 22.6325 18.5875Z" fill="#006475"/>
<path d="M6.25 6.75C5.835 6.75 5.5 6.415 5.5 6C5.5 3.595 6.7575 2.335 9.57501 1.9175C9.98501 1.86 10.3675 2.14 10.4275 2.55C10.4875 2.96 10.205 3.3425 9.79501 3.4025C7.21 3.785 7 4.805 7 6C7 6.415 6.665 6.75 6.25 6.75Z" fill="#CAE8D6"/>
<path d="M25.75 14.585C25.335 14.585 25 14.25 25 13.835V5.99999C25 5.01249 24.7675 4.44999 24.1975 4.05749C23.8575 3.8225 23.77 3.355 24.0075 3.015C24.245 2.675 24.71 2.5875 25.05 2.825C26.35 3.7225 26.5 5.06749 26.5 6.00249V13.8375C26.5 14.25 26.165 14.585 25.75 14.585Z" fill="#006475"/>
<path d="M27.875 26.5H9.75C9.335 26.5 9 26.165 9 25.75C9 25.335 9.335 25 9.75 25H26.6225L27.65 19.345C27.725 18.9375 28.115 18.67 28.5225 18.74C28.93 18.815 29.2 19.205 29.1275 19.6125L27.875 26.5Z" fill="#006475"/>
<path d="M29.5025 12.75H28V6C28 0.25 22.0075 0.25 19.75 0.25H12.25C9.99249 0.25 4 0.25 4 6V12.75H2.4975C1.9025 12.75 1.3425 13.0125 0.962496 13.4675C0.582496 13.9225 0.424997 14.5225 0.529996 15.1075L2.7625 27.385C2.7625 27.3875 2.765 27.39 2.765 27.3925C2.7675 27.41 2.775 27.4275 2.78 27.445C2.7875 27.4725 2.795 27.5025 2.805 27.5275C2.8125 27.545 2.82 27.56 2.83 27.5775C2.8425 27.6025 2.855 27.6275 2.87 27.6525C2.88 27.6675 2.89 27.6825 2.9025 27.6975C2.92 27.72 2.9375 27.7425 2.955 27.7625C2.9675 27.775 2.98 27.79 2.995 27.8025C3.015 27.82 3.035 27.8375 3.0575 27.855C3.0725 27.8675 3.0875 27.8775 3.105 27.8875C3.1275 27.9025 3.1525 27.915 3.1775 27.9275C3.195 27.935 3.21 27.945 3.2275 27.95C3.2575 27.9625 3.2875 27.97 3.3175 27.9775C3.3325 27.98 3.345 27.985 3.3575 27.9875C3.4025 27.995 3.45 28 3.5 28H3.5025H5.25V31C5.25 31.415 5.585 31.75 6 31.75C6.415 31.75 6.75 31.415 6.75 31V28H25.25V31C25.25 31.415 25.585 31.75 26 31.75C26.415 31.75 26.75 31.415 26.75 31V28H28.4975H28.5C28.5475 28 28.595 27.995 28.6425 27.985C28.6575 27.9825 28.67 27.9775 28.6825 27.975C28.7125 27.9675 28.745 27.9575 28.7725 27.9475C28.79 27.94 28.805 27.9325 28.8225 27.925C28.8475 27.9125 28.8725 27.9 28.895 27.885C28.91 27.875 28.9275 27.865 28.9425 27.8525C28.965 27.8375 28.985 27.82 29.005 27.8C29.0175 27.7875 29.0325 27.775 29.045 27.76C29.065 27.74 29.0825 27.7175 29.0975 27.695C29.1075 27.68 29.12 27.6675 29.13 27.65C29.145 27.6275 29.1575 27.6 29.17 27.575C29.1775 27.5575 29.1875 27.5425 29.195 27.525C29.205 27.4975 29.2125 27.47 29.22 27.4425C29.225 27.425 29.23 27.4075 29.235 27.39C29.235 27.3875 29.2375 27.385 29.2375 27.3825L31.47 15.105C31.5775 14.52 31.42 13.9225 31.0375 13.465C30.655 13.0075 30.0975 12.75 29.5025 12.75ZM12.25 1.75H19.75C24.545 1.75 26.5 2.98 26.5 6V12.8475C24.26 13.2675 22.4325 15.015 21.9725 17.31L21.745 18.445C17.935 17.7925 14.0625 17.7925 10.2525 18.445L10.025 17.31C9.56749 15.015 7.74 13.2675 5.5 12.8475V6C5.5 2.98 7.45499 1.75 12.25 1.75ZM29.995 14.84L27.875 26.5H4.125L2.005 14.84C1.9675 14.64 2.0575 14.4975 2.1125 14.43C2.1675 14.3625 2.295 14.25 2.4975 14.25H4.4625C6.445 14.25 8.1675 15.66 8.55499 17.605L8.77999 18.73C7.75749 18.95 6.74 19.215 5.735 19.53C5.34 19.655 5.12 20.075 5.245 20.47C5.345 20.79 5.6425 20.995 5.96 20.995C6.035 20.995 6.11 20.985 6.185 20.96C7.3725 20.5875 8.575 20.285 9.78249 20.05C9.79249 20.0475 9.79999 20.05 9.80999 20.0475C9.81999 20.045 9.82749 20.04 9.83749 20.04C13.915 19.255 18.085 19.255 22.1625 20.04C22.1725 20.0425 22.18 20.0475 22.19 20.0475C22.1975 20.05 22.205 20.0475 22.2125 20.05C23.415 20.2825 24.6075 20.5825 25.79 20.9525C26.185 21.075 26.605 20.855 26.73 20.46C26.8525 20.065 26.6325 19.645 26.2375 19.52C25.24 19.2075 24.23 18.9475 23.2175 18.7275L23.4425 17.6025C23.8325 15.66 25.555 14.25 27.5375 14.25H29.5025C29.705 14.25 29.83 14.3625 29.8875 14.43C29.945 14.4975 30.03 14.64 29.995 14.84Z" fill="#4F4F4F"/>
</svg>
