<svg width="32" height="32" viewBox="0 0 32 32" fill="none" xmlns="http://www.w3.org/2000/svg">
<path d="M16 31C17.3807 31 18.5 29.8807 18.5 28.5C18.5 27.1193 17.3807 26 16 26C14.6193 26 13.5 27.1193 13.5 28.5C13.5 29.8807 14.6193 31 16 31Z" fill="white"/>
<path d="M16 31.75C15.175 31.75 14.325 31.425 13.7 30.8C12.425 29.525 12.425 27.475 13.7 26.2C14.975 24.925 17.025 24.925 18.3 26.2C19.575 27.475 19.575 29.525 18.3 30.8C17.675 31.425 16.825 31.75 16 31.75ZM16 26.75C15.55 26.75 15.1 26.925 14.75 27.25C14.075 27.925 14.075 29.05 14.75 29.725C15.425 30.4 16.55 30.4 17.225 29.725C17.9 29.05 17.9 27.925 17.225 27.25C16.9 26.925 16.45 26.75 16 26.75Z" fill="#4F4F4F"/>
<path d="M10.7 23.95C10.5 23.95 10.325 23.875 10.175 23.725C9.87498 23.425 9.87498 22.95 10.175 22.675C12.825 20 16.95 19.475 20.175 21.4C20.875 21.8 21.725 21.7 22.3 21.15L22.325 21.125C22.7 20.75 22.875 20.225 22.825 19.675C22.75 19.15 22.45 18.675 21.975 18.4C18 16.05 12.975 16.25 9.19998 18.925C7.89998 19.85 6.12498 19.725 4.99998 18.6V18.55C4.32498 17.875 3.97498 16.95 4.04998 16C4.12498 15.05 4.62498 14.2 5.37498 13.65C11.9 8.975 20.875 9.175 27.2 14.1C27.875 14.625 28.85 14.575 29.475 13.95L29.5 13.925C29.85 13.575 30.025 13.1 30 12.6C29.975 12.1 29.725 11.625 29.325 11.325C25.525 8.35 20.75 6.725 15.9 6.75C11.05 6.775 6.27498 8.45 2.49998 11.45C2.17498 11.7 1.69998 11.65 1.44998 11.325C1.19998 11 1.24998 10.525 1.57498 10.275C5.62498 7.05 10.725 5.275 15.9 5.25C15.925 5.25 15.975 5.25 16 5.25C21.15 5.25 26.225 6.975 30.275 10.125C31.025 10.7 31.475 11.55 31.525 12.5C31.575 13.425 31.25 14.325 30.575 14.975L30.55 15C29.4 16.15 27.575 16.275 26.275 15.275C20.475 10.75 12.25 10.575 6.27498 14.875C5.87498 15.175 5.59998 15.625 5.57498 16.125C5.52498 16.625 5.72498 17.15 6.07498 17.5L6.09998 17.525C6.69998 18.125 7.64998 18.2 8.37498 17.7C12.625 14.675 18.3 14.45 22.775 17.1C23.65 17.625 24.2 18.475 24.35 19.475C24.475 20.475 24.15 21.45 23.425 22.175L23.4 22.2C22.35 23.25 20.725 23.45 19.45 22.7C16.8 21.15 13.425 21.575 11.25 23.75C11.075 23.875 10.9 23.95 10.7 23.95Z" fill="#4F4F4F"/>
</svg>
