<svg width="32" height="32" viewBox="0 0 32 32" fill="none" xmlns="http://www.w3.org/2000/svg">
<path d="M28.5 31H3.5C2.125 31 1 29.875 1 28.5V3.5C1 2.125 2.125 1 3.5 1H28.5C29.875 1 31 2.125 31 3.5V28.5C31 29.875 29.875 31 28.5 31Z" fill="white"/>
<path d="M28.5 31.75H3.5C1.7 31.75 0.25 30.3 0.25 28.5V10.25C0.25 9.825 0.575 9.5 1 9.5C1.425 9.5 1.75 9.825 1.75 10.25V28.5C1.75 29.475 2.525 30.25 3.5 30.25H28.5C29.475 30.25 30.25 29.475 30.25 28.5V3.5C30.25 2.525 29.475 1.75 28.5 1.75H3.5C2.525 1.75 1.75 2.525 1.75 3.5V6.25H27.75C28.175 6.25 28.5 6.575 28.5 7C28.5 7.425 28.175 7.75 27.75 7.75H1C0.575 7.75 0.25 7.425 0.25 7V3.5C0.25 1.7 1.7 0.25 3.5 0.25H28.5C30.3 0.25 31.75 1.7 31.75 3.5V28.5C31.75 30.3 30.3 31.75 28.5 31.75Z" fill="#4F4F4F"/>
<path d="M4 4.75C4.41421 4.75 4.75 4.41421 4.75 4C4.75 3.58579 4.41421 3.25 4 3.25C3.58579 3.25 3.25 3.58579 3.25 4C3.25 4.41421 3.58579 4.75 4 4.75Z" fill="#4F4F4F"/>
<path d="M6.5 4.75C6.91421 4.75 7.25 4.41421 7.25 4C7.25 3.58579 6.91421 3.25 6.5 3.25C6.08579 3.25 5.75 3.58579 5.75 4C5.75 4.41421 6.08579 4.75 6.5 4.75Z" fill="#4F4F4F"/>
<path d="M9 4.75C9.41421 4.75 9.75 4.41421 9.75 4C9.75 3.58579 9.41421 3.25 9 3.25C8.58579 3.25 8.25 3.58579 8.25 4C8.25 4.41421 8.58579 4.75 9 4.75Z" fill="#4F4F4F"/>
<path d="M19.2 20.375H12.8C12.5 20.375 12.25 20.65 12.3 20.95C12.575 22.75 14.125 24.125 16 24.125C17.875 24.125 19.425 22.75 19.7 20.95C19.75 20.65 19.525 20.375 19.2 20.375Z" fill="#4F4F4F"/>
<path d="M12.25 17.875C13.2855 17.875 14.125 17.0355 14.125 16C14.125 14.9645 13.2855 14.125 12.25 14.125C11.2145 14.125 10.375 14.9645 10.375 16C10.375 17.0355 11.2145 17.875 12.25 17.875Z" fill="#4F4F4F"/>
<path d="M21 16.75H18.75C18.325 16.75 18 16.425 18 16C18 15.575 18.325 15.25 18.75 15.25H21C21.425 15.25 21.75 15.575 21.75 16C21.75 16.425 21.425 16.75 21 16.75Z" fill="#4F4F4F"/>
</svg>
