<svg width="32" height="32" viewBox="0 0 32 32" fill="none" xmlns="http://www.w3.org/2000/svg">
<path d="M27.225 27.225C26.65 27.8 25.7 27.8 25.1 27.225L21.925 24.05C21.35 23.475 21.35 22.525 21.925 21.925C22.5 21.35 23.45 21.35 24.05 21.925L27.225 25.1C27.8 25.7 27.8 26.65 27.225 27.225Z" fill="white"/>
<path d="M6.8837 6.89724C5.24279 8.53821 4.32095 10.7638 4.321 13.0845C4.32104 15.4051 5.24295 17.6307 6.88392 19.2716C8.52489 20.9125 10.7505 21.8344 13.0712 21.8343C15.3918 21.8343 17.6174 20.9124 19.2583 19.2714C20.8992 17.6304 21.821 15.4048 21.821 13.0842C21.821 10.7635 20.8991 8.53794 19.2581 6.89703C17.6171 5.25611 15.3915 4.33428 13.0708 4.33432C10.7502 4.33436 8.52462 5.25627 6.8837 6.89724Z" fill="white"/>
<path d="M6.8837 6.89724C5.24279 8.53821 4.32095 10.7638 4.321 13.0845C4.32104 15.4051 5.24295 17.6307 6.88392 19.2716C8.52489 20.9125 10.7505 21.8344 13.0712 21.8343C15.3918 21.8343 17.6174 20.9124 19.2583 19.2714C20.8992 17.6304 21.821 15.4048 21.821 13.0842C21.821 10.7635 20.8991 8.53794 19.2581 6.89703C17.6171 5.25611 15.3915 4.33428 13.0708 4.33432C10.7502 4.33436 8.52462 5.25627 6.8837 6.89724Z" fill="white"/>
<path d="M13.075 21.075C12.65 21.075 12.325 20.75 12.325 20.325C12.325 19.9 12.65 19.575 13.075 19.575C14.8 19.575 16.45 18.9 17.675 17.675C19.275 16.075 19.925 13.8 19.4 11.575C19.3 11.175 19.55 10.775 19.95 10.675C20.35 10.575 20.75 10.825 20.85 11.225C21.5 13.95 20.725 16.775 18.75 18.75C17.225 20.25 15.225 21.075 13.075 21.075ZM18.25 8.75001C18.05 8.75001 17.875 8.67501 17.725 8.52501L17.675 8.50001C17.375 8.20001 17.375 7.72501 17.675 7.45001C17.975 7.15001 18.45 7.15001 18.725 7.45001L18.775 7.50001C19.075 7.80001 19.075 8.27501 18.775 8.55001C18.625 8.67501 18.45 8.75001 18.25 8.75001Z" fill="#71C2FF"/>
<path d="M13.075 22.575C10.65 22.575 8.20002 21.65 6.35001 19.8C2.65001 16.1 2.65001 10.075 6.35001 6.37501C10.05 2.67501 16.075 2.67501 19.775 6.37501C23.5 10.075 23.5 16.1 19.8 19.8C17.95 21.65 15.525 22.575 13.075 22.575ZM13.075 5.10001C11.025 5.10001 8.97502 5.87501 7.42501 7.45C4.30001 10.575 4.30001 15.65 7.42501 18.775C10.55 21.85 15.625 21.85 18.75 18.75C21.875 15.625 21.875 10.55 18.75 7.42501C17.175 5.87501 15.125 5.10001 13.075 5.10001ZM27.75 24.575L24.575 21.4C24.15 20.975 23.575 20.75 22.975 20.75C22.625 20.75 22.3 20.825 22 20.975L21.375 20.35C21.075 20.05 20.6 20.05 20.325 20.35C20.025 20.65 20.025 21.125 20.325 21.4L20.95 22.025C20.8 22.325 20.725 22.65 20.725 23C20.725 23.6 20.95 24.175 21.375 24.6L24.575 27.75C25.025 28.2 25.6 28.4 26.175 28.4C26.75 28.4 27.325 28.175 27.775 27.75C28.625 26.875 28.625 25.45 27.75 24.575ZM26.7 26.7C26.4 27 25.925 27 25.65 26.7L22.45 23.525C22.3 23.375 22.225 23.2 22.225 23C22.225 22.8 22.3 22.6 22.45 22.475C22.6 22.325 22.775 22.25 22.975 22.25C23.175 22.25 23.375 22.325 23.5 22.475L26.675 25.65C27 25.925 27 26.4 26.7 26.7Z" fill="#444B54"/>
</svg>
