<svg width="361" height="128" viewBox="0 0 361 128" fill="none" xmlns="http://www.w3.org/2000/svg">
<path d="M19.68 105.6C17.12 105.6 14.92 105.28 13.08 104.64C11.28 103.96 9.78 103.1 8.58 102.06C7.38 100.98 6.42 99.86 5.7 98.7C4.98 97.54 4.44 96.44 4.08 95.4C3.72 94.32 3.48 93.46 3.36 92.82C3.28 92.14 3.24 91.8 3.24 91.8H9.24C9.24 91.8 9.3 92.08 9.42 92.64C9.54 93.2 9.78 93.9 10.14 94.74C10.54 95.58 11.12 96.44 11.88 97.32C12.64 98.16 13.66 98.86 14.94 99.42C16.22 99.98 17.84 100.26 19.8 100.26C22.76 100.26 25.1 99.56 26.82 98.16C28.54 96.72 29.4 94.86 29.4 92.58C29.4 90.62 28.74 89.1 27.42 88.02C26.14 86.94 24.3 86.1 21.9 85.5L16.02 84.06C13.94 83.54 12 82.82 10.2 81.9C8.44 80.94 7.02 79.7 5.94 78.18C4.9 76.62 4.38 74.68 4.38 72.36C4.38 69.76 5.02 67.54 6.3 65.7C7.58 63.86 9.32 62.46 11.52 61.5C13.72 60.5 16.22 60 19.02 60C21.74 60 24 60.42 25.8 61.26C27.6 62.1 29.04 63.14 30.12 64.38C31.2 65.58 32 66.8 32.52 68.04C33.04 69.24 33.38 70.26 33.54 71.1C33.7 71.94 33.78 72.36 33.78 72.36H28.02C28.02 72.36 27.94 72 27.78 71.28C27.62 70.56 27.24 69.74 26.64 68.82C26.04 67.86 25.12 67.02 23.88 66.3C22.64 65.58 20.96 65.22 18.84 65.22C15.96 65.22 13.78 65.9 12.3 67.26C10.86 68.62 10.14 70.18 10.14 71.94C10.14 73.54 10.72 74.84 11.88 75.84C13.04 76.8 14.64 77.54 16.68 78.06L23.04 79.62C25.32 80.18 27.38 81 29.22 82.08C31.06 83.12 32.52 84.48 33.6 86.16C34.68 87.8 35.22 89.82 35.22 92.22C35.22 94.62 34.62 96.84 33.42 98.88C32.26 100.92 30.52 102.56 28.2 103.8C25.92 105 23.08 105.6 19.68 105.6ZM44.0859 105V60.6H49.9659V79.86H71.1459V60.6H77.0259V105H71.1459V85.14H49.9659V105H44.0859ZM177.994 105V60.6H193.714C196.874 60.6 199.494 61.22 201.574 62.46C203.654 63.7 205.214 65.3 206.254 67.26C207.294 69.22 207.814 71.28 207.814 73.44C207.814 75.24 207.454 76.98 206.734 78.66C206.014 80.34 204.934 81.82 203.494 83.1C202.094 84.34 200.314 85.24 198.154 85.8L209.374 105H202.714L191.974 86.34H183.874V105H177.994ZM193.654 65.76H183.874V81.3H193.654C195.494 81.3 197.014 80.92 198.214 80.16C199.414 79.4 200.314 78.44 200.914 77.28C201.514 76.08 201.814 74.84 201.814 73.56C201.814 72.24 201.514 71 200.914 69.84C200.314 68.64 199.414 67.66 198.214 66.9C197.014 66.14 195.494 65.76 193.654 65.76ZM219.272 105V60.6H247.472V65.76H225.152V79.8H244.712V84.96H225.152V99.84H247.772V105H219.272ZM261.459 105.6C260.339 105.6 259.399 105.22 258.639 104.46C257.919 103.66 257.559 102.74 257.559 101.7C257.559 100.62 257.919 99.7 258.639 98.94C259.399 98.18 260.339 97.8 261.459 97.8C262.579 97.8 263.499 98.18 264.219 98.94C264.979 99.7 265.359 100.62 265.359 101.7C265.359 102.78 264.979 103.7 264.219 104.46C263.499 105.22 262.579 105.6 261.459 105.6ZM276.047 105V60.6H283.787L296.867 87L309.887 60.6H317.627V105H311.867V69.24L299.627 93.6H294.047L281.807 69.12V105H276.047ZM328.399 105V60.6H356.599V65.76H334.279V79.8H353.839V84.96H334.279V99.84H356.899V105H328.399Z" fill="#4F4F4F"/>
<path d="M171 49C171 26 151.5 7.50001 128.2 9.10001C108.1 10.5 92 27 91.1 47C90.4 61.3 97.2 74 107.8 81.6C113 85.3 116 91.3 116 97.7V109H146V97.7C146 91.2 149.2 85.2 154.5 81.4C164.5 74.2 171 62.3 171 49Z" fill="white"/>
<path d="M131 48.6V81C131 92.2 136.6 102.7 146 109V97.6999C146 91.1999 149.2 85.2 154.5 81.4C164.5 74.2 171 62.3 171 49C171 48.4 171 47.9 171 47.4C170 21.5 131 22.7 131 48.6Z" fill="#F1E9B4"/>
<path d="M91.1 46.9C97.4 45.4 104.9 41 111.6 34.3C119.9 26 124.7 16.5 124.7 9.5C106.4 12.4 92.1 28.1 91.1 46.9Z" fill="white"/>
<path d="M146 100.7C144.3 100.7 143 99.4 143 97.7C143 90.3 146.6 83.3 152.7 78.9C162.3 72 168 60.8 168 49C168 38.8 163.7 28.9 156.2 21.9C148.6 14.8 138.7 11.3 128.3 12C109.7 13.4 95.0001 28.5 94.1001 47.2C93.5001 59.9 99.3 71.8 109.6 79.2C110.9 80.2 111.3 82 110.3 83.4C109.3 84.7 107.5 85.1 106.1 84.1C94.1001 75.6 87.4001 61.7 88.1001 47C89.1001 25.1 106.3 7.6 128 6.1C140.1 5.3 151.6 9.3 160.4 17.6C169.1 25.7 174 37.1 174 49C174 62.7 167.3 75.8 156.2 83.8C151.7 87.1 149 92.3 149 97.7C149 99.4 147.7 100.7 146 100.7Z" fill="#4F4F4F"/>
<path d="M148.1 99H131H113.9V109H148.1V99Z" fill="white"/>
<path d="M148.1 112H113.9C112.2 112 110.9 110.7 110.9 109V99C110.9 97.3 112.2 96 113.9 96H148.1C148.9 96 149.7 96.3 150.2 96.9C150.7 97.5 151.1 98.2 151.1 99L151 109C151 110.7 149.7 112 148.1 112ZM116.9 106H145.1V102H116.9V106ZM133 122H129C127.3 122 126 120.7 126 119C126 117.3 127.3 116 129 116H133C134.7 116 136 117.3 136 119C136 120.7 134.7 122 133 122Z" fill="#4F4F4F"/>
<path d="M129 33.6C131 33.6 132.68 33.92 134.04 34.56C135.4 35.2 136.5 35.96 137.34 36.84C138.18 37.68 138.82 38.48 139.26 39.24H139.62V34.2H145.32V66H139.62V60.96H139.26C138.82 61.72 138.18 62.54 137.34 63.42C136.5 64.3 135.4 65.06 134.04 65.7C132.68 66.3 131 66.6 129 66.6C126.6 66.6 124.5 66.14 122.7 65.22C120.9 64.26 119.4 63 118.2 61.44C117 59.84 116.1 58.06 115.5 56.1C114.9 54.14 114.6 52.14 114.6 50.1C114.6 48.06 114.9 46.06 115.5 44.1C116.1 42.14 117 40.38 118.2 38.82C119.4 37.22 120.9 35.96 122.7 35.04C124.5 34.08 126.6 33.6 129 33.6ZM129.96 38.46C127.84 38.46 126.06 39.04 124.62 40.2C123.18 41.32 122.1 42.76 121.38 44.52C120.7 46.28 120.36 48.14 120.36 50.1C120.36 52.02 120.7 53.88 121.38 55.68C122.1 57.44 123.18 58.9 124.62 60.06C126.06 61.18 127.84 61.74 129.96 61.74C132.08 61.74 133.84 61.18 135.24 60.06C136.68 58.9 137.74 57.44 138.42 55.68C139.14 53.88 139.5 52.02 139.5 50.1C139.5 48.14 139.14 46.28 138.42 44.52C137.74 42.76 136.68 41.32 135.24 40.2C133.84 39.04 132.08 38.46 129.96 38.46Z" fill="#4F4F4F"/>
</svg>
