<svg width="1440" height="1024" viewBox="0 0 1440 1024" fill="none" xmlns="http://www.w3.org/2000/svg">
<g opacity="0.15">
<path d="M1461.64 364.953C1460.2 364.564 1459.07 363.681 1458.28 362.304C1456.69 359.548 1457.61 356.107 1460.32 354.697C1484.71 340.462 1515.61 344.666 1535.24 364.872C1539.53 369.128 1545.88 370.054 1551.12 367.186L1551.35 367.053C1554.79 365.064 1557.08 361.601 1557.78 357.519C1558.26 353.57 1557.01 349.547 1554.1 346.632C1529.86 321.892 1493.07 313.587 1460.53 325.638C1449.32 329.815 1436.7 325.464 1430.74 315.13L1430.83 314.768C1427.25 308.568 1426.51 301.187 1428.9 294.451C1431.29 287.714 1436.56 282.527 1443.06 279.998C1499.41 258.797 1564.04 277.667 1600.3 325.624C1604.17 330.737 1611.33 332.268 1617.07 328.953L1617.3 328.821C1620.52 326.964 1622.7 323.863 1623.49 320.192C1624.28 316.522 1623.39 312.595 1621.08 309.645C1599.33 280.717 1567.89 259.676 1532.7 250.442C1497.52 241.209 1459.68 244.074 1426.5 258.48C1423.66 259.66 1420.32 258.376 1419.14 255.536C1417.96 252.696 1419.24 249.352 1422.08 248.172C1457.68 232.67 1498.08 229.711 1535.62 239.576C1535.8 239.624 1536.16 239.721 1536.34 239.77C1573.65 249.767 1607.07 272.115 1630.29 302.796C1634.61 308.418 1636.22 315.449 1634.74 322.428C1633.3 329.226 1629.2 335.115 1623.05 338.514L1622.82 338.647C1612.26 344.745 1598.79 342.108 1591.32 332.34C1558.08 288.301 1498.84 271.067 1447.2 290.62C1443.72 292.017 1440.86 294.743 1439.71 298.317C1438.37 301.842 1438.8 306.033 1440.66 309.248L1440.79 309.478C1443.97 314.989 1450.71 317.377 1456.93 315.162C1493.59 301.497 1535.14 310.883 1562.42 338.768C1567.74 344.269 1570.07 351.495 1569.22 359.03C1568.18 366.518 1563.94 372.95 1557.28 376.795L1557.05 376.927C1547.4 382.496 1535.24 380.79 1527.46 372.882C1511.27 356.509 1486 353.037 1466.02 364.571C1464.51 365.137 1463.09 365.341 1461.64 364.953Z" fill="#4F4F4F"/>
<path d="M1162.53 135.726C1140.92 129.934 1117.89 132.966 1098.51 144.155C1079.13 155.344 1064.98 173.773 1059.19 195.388C1053.4 217.003 1056.43 240.034 1067.62 259.413C1078.81 278.793 1097.24 292.934 1118.86 298.726C1140.47 304.517 1163.5 301.485 1182.88 290.297C1202.26 279.108 1216.4 260.679 1222.19 239.064C1227.98 217.448 1224.95 194.418 1213.76 175.038C1202.58 155.659 1184.15 141.517 1162.53 135.726V135.726Z" fill="#FCCA3D"/>
<path d="M1120.31 293.292C1117.23 292.467 1115.51 289.482 1116.33 286.403C1117.16 283.324 1120.14 281.601 1123.22 282.426C1159.26 292.083 1196.24 270.737 1205.89 234.696C1206.72 231.617 1209.7 229.894 1212.78 230.718C1215.86 231.543 1217.58 234.529 1216.76 237.608C1205.5 279.625 1162.33 304.551 1120.31 293.292Z" fill="#FF6144"/>
<path d="M1224.99 227.194C1214.65 217.242 1203.15 208.725 1190.71 201.512C1189.73 200.858 1189.52 199.445 1190.36 198.504C1196.74 192.062 1204.91 187.651 1214 185.621C1216.87 185.032 1218.96 182.293 1218.61 179.285C1218.11 176.048 1215.01 173.858 1211.91 174.579C1198.99 177.136 1187.64 183.995 1179.33 193.998C1178.78 194.625 1177.96 194.793 1177.05 194.551C1170.51 191.439 1163.64 188.822 1156.62 186.748C1155.72 186.505 1155.06 185.357 1155.3 184.452L1162.53 157.466C1163.31 154.568 1161.86 151.269 1159.01 150.312C1155.98 149.306 1152.58 151.113 1151.76 154.192L1144.43 181.54C1144.19 182.445 1143.22 183.157 1142.14 182.866C1134.97 181.335 1127.72 180.167 1120.54 179.41C1119.77 179.397 1119.01 178.611 1118.84 177.789C1117.76 171.676 1115.81 165.913 1112.81 160.45C1111.54 157.973 1108.6 156.604 1106.04 157.471C1102.61 158.687 1101.18 162.574 1102.9 165.559C1104.71 168.955 1106.11 172.435 1107.04 176.181C1107.3 177.413 1106.41 178.535 1105.23 178.606C1090.86 178.637 1076.46 180.214 1062.3 183.797C1059.38 184.566 1057.23 187.486 1057.82 190.362C1058.19 192.597 1059.9 194.217 1061.89 194.751C1062.79 194.994 1063.75 195.055 1064.8 194.754C1078.5 191.437 1092.54 189.763 1106.63 190.046C1107.76 190.156 1108.52 190.942 1108.41 192.077C1107.7 201.98 1103.81 211.42 1097.14 218.949C1088.97 228.408 1077.55 234.083 1065.08 235.01C1063.12 235.069 1061.3 235.356 1059.29 235.595C1056.28 235.954 1053.88 238.415 1054.05 241.374C1054.15 243.923 1055.88 246.135 1058.24 246.766C1058.96 246.96 1059.74 246.973 1060.33 246.938C1061.74 246.734 1063.15 246.531 1064.7 246.557C1080.63 245.778 1095.17 238.609 1105.61 226.459C1113.82 216.819 1118.7 205.121 1119.45 192.899C1119.56 191.764 1120.53 191.053 1121.48 191.114C1127.34 191.713 1133.1 192.674 1138.76 193.997C1139.85 194.289 1140.38 195.207 1140.09 196.294L1113.06 297.173C1112.28 300.07 1113.73 303.369 1116.58 304.327C1119.61 305.333 1123 303.525 1123.83 300.447L1151.05 198.843C1151.35 197.757 1152.44 197.275 1153.35 197.518C1158.92 199.203 1164.52 201.48 1169.76 203.661C1170.79 204.133 1171.1 205.184 1170.62 206.222C1165.3 217.412 1163.49 229.935 1165.83 242.209C1168.71 257.539 1177.41 270.739 1190.22 279.414C1190.72 279.741 1191.39 280.116 1191.94 280.261C1194.29 280.892 1197.08 279.893 1198.31 277.503C1199.76 274.981 1198.9 271.646 1196.43 270.013C1186.09 262.971 1179.22 252.394 1176.88 240.12C1175.09 230.13 1176.39 220.191 1180.55 211.21C1181.02 210.172 1182.25 209.92 1183.11 210.344C1195.27 217.098 1206.64 225.385 1216.62 235.24C1218.95 237.417 1222.68 237.252 1224.67 234.875C1227.58 232.741 1227.13 229.323 1224.99 227.194Z" fill="white"/>
<path d="M1117.4 304.159C1069.41 291.299 1040.9 241.926 1053.76 193.932C1066.62 145.938 1115.99 117.432 1163.99 130.292C1211.98 143.152 1240.49 192.525 1227.63 240.519C1214.77 288.514 1165.39 317.019 1117.4 304.159ZM1161.08 141.159C1119.06 129.9 1075.89 154.826 1064.63 196.844C1053.37 238.861 1078.29 282.034 1120.31 293.292C1162.33 304.551 1205.5 279.625 1216.76 237.608C1228.02 195.59 1203.09 152.418 1161.08 141.159Z" fill="#4F4F4F"/>
<rect x="1010.17" y="-41.3664" width="1212" height="1.99995" transform="rotate(105 1010.17 -41.3664)" fill="#4F4F4F"/>
<rect x="1384.95" y="59.0554" width="1212" height="1.99995" transform="rotate(105 1384.95 59.0554)" fill="#4F4F4F"/>
<rect x="-137.535" y="-352" width="1988" height="2" transform="rotate(15 -137.535 -352)" fill="#4F4F4F"/>
<rect x="260.616" y="-242.21" width="1212" height="1.99995" transform="rotate(105 260.616 -242.21)" fill="#4F4F4F"/>
<rect x="635.395" y="-141.788" width="1212" height="1.99995" transform="rotate(105 635.395 -141.788)" fill="#4F4F4F"/>
<rect width="1988" height="2" transform="matrix(-0.965926 -0.258819 -0.258819 0.965926 1469.04 1333.23)" fill="#4F4F4F"/>
<rect width="1988" height="2" transform="matrix(-0.965926 -0.258819 -0.258819 0.965926 1575.67 935.273)" fill="#4F4F4F"/>
<rect width="1988" height="2" transform="matrix(-0.965926 -0.258819 -0.258819 0.965926 1676.09 560.494)" fill="#4F4F4F"/>
<g clip-path="url(#clip0_114_490)">
<path d="M101.061 14.9439L108.862 -175.721L98.9871 -170.02C90.4904 -165.115 80.6454 -163.87 71.4088 -166.345C62.1721 -168.82 54.2682 -174.82 49.3627 -183.317L43.6616 -193.192L-44.915 -24.1702C-48.8129 -16.8677 -49.4022 -8.87279 -47.6596 -1.61186L-93.2727 -26.2572C-101.432 -30.5788 -111.559 -26.11 -113.937 -17.2355C-116.023 -9.44774 -111.335 -1.59147 -103.728 0.446735L61.0833 44.6077C80.6918 49.6677 100.263 35.3063 101.061 14.9439Z" fill="white"/>
<path d="M106.833 15.1319L114.453 -175.582C114.625 -177.671 113.564 -179.508 111.718 -180.585C110.052 -181.614 107.733 -181.653 105.896 -180.592L96.0217 -174.891C89.084 -170.733 80.8334 -169.643 72.8645 -171.779C64.8956 -173.914 58.2951 -178.983 54.185 -186.101L48.484 -195.976C47.4233 -197.813 45.5767 -198.89 43.4389 -198.881C41.301 -198.871 39.4154 -197.629 38.5679 -195.915L-50.0088 -26.8938C-55.2264 -16.8392 -55.6996 -4.93086 -51.0982 5.42545C-50.6164 6.52512 -49.9535 7.67332 -49.2906 8.82152L-102.356 -5.39736C-107.065 -6.6591 -109.849 -11.4815 -108.588 -16.1904C-107.908 -18.726 -106.142 -20.9704 -103.532 -22.018C-101.103 -23.1142 -98.2407 -22.9296 -95.8508 -21.7069L-75.6574 -10.8609C-72.9537 -9.35996 -69.5706 -10.3946 -68.0697 -13.0983C-66.5688 -15.802 -67.6035 -19.185 -70.3071 -20.6859L-90.5006 -31.5319C-95.9564 -34.3526 -102.273 -34.6863 -108.001 -32.1447C-113.68 -29.7842 -117.72 -24.8492 -119.322 -18.8725C-122.185 -8.18694 -115.821 2.83576 -105.135 5.69895L-26.352 26.8089L-26.1708 26.8574L-23.2731 27.6339C-20.1942 28.4589 -17.2089 26.7353 -16.3839 23.6564C-15.5589 20.5775 -17.2825 17.5922 -20.3613 16.7672L-23.4402 15.9422C-31.228 13.8555 -37.5504 8.47322 -40.7904 1.00517C-44.079 -6.28176 -43.6223 -14.5063 -39.9541 -21.6762L43.8772 -181.681L44.4076 -180.763C50.0601 -170.707 59.0862 -163.824 69.9528 -160.912C80.8195 -158 92.0779 -159.448 101.771 -165.198L102.871 -165.68L95.6496 14.8528C95.29 22.7151 91.5732 30.0662 85.0333 34.9137C78.4933 39.7612 70.3268 41.2611 62.539 39.1744L61.0901 38.7862C58.0112 37.9612 55.0259 39.6848 54.2009 42.7636C53.376 45.8425 55.0995 48.8278 58.1784 49.6528L59.6273 50.0411C70.6751 53.0013 82.3087 50.8774 91.7014 44.0767C100.962 37.0464 106.457 26.678 106.833 15.1319Z" fill="#4F4F4F"/>
<path d="M82.8188 -52.4488C80.0666 -53.7686 76.6835 -52.734 75.3152 -49.8007L37.1288 27.5129C35.8575 30.0839 33.1989 31.3127 30.4823 30.5848C27.4034 29.7598 25.6798 26.7745 26.5048 23.6956L43.053 -38.0633C43.878 -41.1422 42.1544 -44.1275 39.0756 -44.9525C35.9967 -45.7775 33.0114 -44.0539 32.1864 -40.975L15.6867 20.6028C14.9102 23.5006 11.6952 25.3567 8.61636 24.5317L6.80524 24.0464C4.08858 23.3185 2.40053 20.9251 2.58513 18.0628L7.9904 -68.0344C8.22353 -71.0778 5.85957 -73.8464 2.76767 -73.8985C-0.275688 -74.1316 -3.04437 -71.7676 -3.09639 -68.6757L-8.45314 17.2404C-9.27209 25.3678 -3.89425 32.8264 4.07464 34.9616L5.88575 35.4469C10.0513 36.5631 14.4725 36.0007 18.0497 34.2416C20.2681 37.5536 23.6346 40.2027 27.8002 41.3189C35.588 43.4056 43.5638 39.7193 47.2806 32.3683L85.4669 -44.9453C86.7867 -47.6974 85.571 -51.129 82.8188 -52.4488Z" fill="#4F4F4F"/>
</g>
<g clip-path="url(#clip1_114_490)">
<path d="M380.092 69.9104C388.966 72.2883 404.432 77.597 414.493 87.8632C435.639 109.641 436.52 130.259 449.26 132.702C462.361 135.242 474.18 119.386 482.62 101.653C504.222 55.807 503.67 -38.4862 459.278 -43.7811C446.707 -45.4025 418.924 -32.2708 404.797 -36.0561C390.852 -39.7928 373.127 -64.924 361.478 -69.9866C320.518 -87.3674 272.894 -5.98287 268.679 44.5221C267.122 64.0985 269.429 83.74 282.045 88.0911C294.299 92.3452 305.372 74.9299 334.574 66.6432C348.468 62.6016 364.516 65.7369 373.342 68.296L380.043 70.0915L380.092 69.9104Z" fill="white"/>
<path d="M334.115 26.3385C348.118 30.0908 362.512 21.7805 366.265 7.77699C370.017 -6.2265 361.706 -20.6203 347.703 -24.3726C333.699 -28.1248 319.306 -19.8145 315.553 -5.81101C311.801 8.19247 320.111 22.5863 334.115 26.3385Z" fill="#E8E8F9"/>
<path d="M416.456 52.2839L401.967 48.4017C392.006 45.7326 381.672 51.6988 379.003 61.6599L377.013 69.0855L380.092 69.9104C388.966 72.2883 404.432 77.597 414.493 87.8632C435.639 109.641 436.52 130.259 449.26 132.702C462.361 135.242 474.18 119.386 482.62 101.653C497.755 69.7977 502.049 14.6549 488.452 -17.9114L475.049 -21.5025C465.088 -24.1716 454.755 -18.2054 452.085 -8.2443L439.468 38.8446C436.75 48.9868 426.417 54.953 416.456 52.2839Z" fill="#C7C3F4"/>
<path d="M332.659 31.7719C315.635 27.2102 305.558 9.7576 310.12 -7.26684C314.682 -24.2913 332.134 -34.3676 349.159 -29.8059C366.183 -25.2442 376.26 -7.79157 371.698 9.23287C367.136 26.2573 349.684 36.3336 332.659 31.7719ZM346.247 -18.9392C335.199 -21.8994 323.947 -15.4029 320.987 -4.35513C318.027 6.69265 324.523 17.945 335.571 20.9052C346.619 23.8655 357.871 17.3689 360.831 6.32116C363.791 -4.72662 357.295 -15.979 346.247 -18.9392Z" fill="#4F4F4F"/>
<path d="M446.85 138.074C438.337 135.793 434.192 128.082 429.251 118.994C425.105 111.283 419.718 101.687 410.333 91.7956C401.032 82.3154 386.424 77.4305 378.455 75.2952L371.935 73.5482C364.872 71.6556 354.173 69.5654 343.833 70.483C340.644 70.7932 337.954 68.5193 337.643 65.3304C337.333 62.1414 339.607 59.4508 342.796 59.1406C354.96 57.9353 366.926 60.3652 375.076 62.549L381.596 64.296C390.471 66.6739 407.385 72.3708 418.701 83.7497C429.34 94.7533 434.944 104.99 439.487 113.39C444.031 121.789 446.55 126.152 450.583 127.039C458.697 128.631 468.601 118.473 477.84 99.2077C496.184 60.4474 494.417 3.29244 480.69 -21.5442C475.218 -31.5513 467.809 -37.2247 458.957 -38.2378C454.465 -38.8591 445.923 -36.6832 437.792 -34.5914C425.276 -31.3453 412.808 -28.2804 403.704 -30.5257L403.523 -30.5742C394.286 -33.0492 385.069 -42.1187 375.985 -50.9585C369.989 -56.8356 363.68 -62.9908 359.479 -64.6988C351.306 -68.2474 342.053 -67.0386 332.311 -61.108C307.775 -46.3298 277.897 2.15161 274.404 44.8913C272.591 66.1463 276.089 79.8952 284.093 82.6223C287.848 83.8225 292.392 81.352 300.527 76.3494C303.512 74.6258 306.824 72.4074 310.631 70.5157C313.338 69.1059 316.779 70.0279 318.189 72.735C319.599 75.4422 318.677 78.8833 315.97 80.2932C312.525 82.2819 309.31 84.1381 306.325 85.8617C297.272 91.3946 289.367 96.2646 280.506 93.1138C266.984 88.52 261.086 71.4106 263.414 43.8877C264.644 24.8061 272.318 1.23907 283.782 -20.5358C296.226 -43.7951 311.308 -61.6887 326.562 -70.8013C339.519 -78.5882 352.323 -80.0101 364.021 -75.1287C370.117 -72.5247 376.921 -66.0428 383.99 -59.1015C391.555 -51.8336 399.963 -43.369 406.483 -41.622C412.822 -39.9235 424.468 -42.8203 434.883 -45.465C444.475 -47.9416 453.609 -50.153 460.191 -49.3601C472.762 -47.7387 483.14 -40.105 490.467 -26.883C499.121 -11.3646 503.236 11.673 502.383 38.0381C501.605 62.6762 496.334 86.693 487.943 104.244C476.197 129.244 462.354 141.063 448.528 138.329C447.755 138.316 447.212 138.171 446.85 138.074Z" fill="#4F4F4F"/>
<path d="M467.332 29.0344L449.22 24.1815L454.073 6.07039C454.898 2.9915 453.175 0.00618301 450.096 -0.818803C447.017 -1.64379 444.032 0.0797842 443.207 3.15867L438.354 21.2698L420.243 16.4169C417.164 15.5919 414.178 17.3155 413.353 20.3944C412.528 23.4733 414.252 26.4586 417.331 27.2836L435.442 32.1364L430.589 50.2476C429.764 53.3264 431.488 56.3118 434.567 57.1367C437.646 57.9617 440.631 56.2382 441.456 53.1593L446.309 35.0482L464.42 39.901C467.499 40.726 470.484 39.0024 471.309 35.9235C472.134 32.8447 470.41 29.8593 467.332 29.0344Z" fill="#4F4F4F"/>
</g>
<g clip-path="url(#clip2_114_490)">
<path d="M868.585 124.903L854.35 121.089C853.643 120.899 852.94 120.769 852.224 120.616L852.267 120.531L866.825 66.1973C874.867 36.1872 852.208 23.4577 822.198 15.4165L767.864 0.857927C737.854 -7.18325 711.867 -7.48853 703.825 22.5216L689.267 76.8549L689.279 76.9552C688.582 76.7297 687.89 76.4861 687.184 76.2968L672.949 72.4825C667.298 70.9684 661.65 74.9486 661.18 80.7623L657.068 130.81L653.521 174.04L834.632 222.568L853.175 183.356L874.637 137.958C877.136 132.688 874.236 126.417 868.585 124.903Z" fill="#89C9A3"/>
<path d="M701.222 128.082C698.686 127.403 696.903 125.003 697.067 122.291L697.642 113.263C698.037 107.08 695.603 101.167 690.952 97.009C688.635 94.9324 688.44 91.3861 690.517 89.0696C692.593 86.7531 696.14 86.5581 698.456 88.6346C705.688 95.1147 709.498 104.366 708.877 114.002L708.302 123.03C708.113 126.124 705.422 128.489 702.333 128.283C701.938 128.235 701.566 128.174 701.222 128.082Z" fill="#006475"/>
<path d="M808.94 148.423C808.596 148.331 808.262 148.203 807.932 148.056C787.699 138.228 765.707 130.977 743.438 126.718C740.397 126.117 738.386 123.19 738.969 120.144C739.552 117.097 742.497 115.091 745.543 115.674C768.797 120.1 791.728 127.681 812.86 137.924C815.662 139.276 816.815 142.652 815.467 145.436C814.261 147.908 811.494 149.108 808.94 148.423Z" fill="#006475"/>
<path d="M713.236 30.8666C710.23 30.061 708.453 26.9838 709.259 23.9774C713.927 6.55452 725.483 -0.132485 746.705 2.31214C749.786 2.69145 752.014 5.46239 751.653 8.54907C751.292 11.6358 748.503 13.8584 745.416 13.4972C725.946 11.2503 722.445 18.232 720.125 26.8891C719.32 29.8955 716.243 31.6722 713.236 30.8666Z" fill="#CAE8D6"/>
<path d="M839.294 125.479C836.288 124.674 834.511 121.596 835.317 118.59L850.525 61.8297C852.442 54.6758 851.85 50.1495 848.482 46.1996C846.475 43.8372 846.749 40.2805 849.13 38.2785C851.51 36.2764 855.049 36.5451 857.051 38.9257C864.726 47.951 863.202 57.986 861.387 64.7595L846.178 121.52C845.378 124.508 842.301 126.285 839.294 125.479Z" fill="#006475"/>
<path d="M831.56 215.922L700.254 180.738C697.248 179.933 695.471 176.856 696.277 173.849C697.082 170.843 700.16 169.066 703.166 169.872L825.398 202.624L843.819 163.651C845.153 160.844 848.498 159.663 851.314 160.962C854.12 162.296 855.319 165.645 854.003 168.457L831.56 215.922Z" fill="#006475"/>
<path d="M870.041 119.47L859.156 116.553L872.259 67.6531C883.42 25.9976 840.008 14.3653 823.654 9.98315L769.32 -4.57542C752.966 -8.95755 709.554 -20.5898 698.392 21.0657L685.289 69.9657L674.405 67.0491C670.094 65.8942 665.528 66.7088 661.892 69.2674C658.255 71.826 655.95 75.8669 655.575 80.3087L647.916 173.586C647.911 173.604 647.924 173.627 647.919 173.645C647.903 173.777 647.924 173.918 647.926 174.055C647.927 174.268 647.923 174.5 647.947 174.701C647.967 174.842 647.993 174.965 648.031 175.112C648.073 175.317 648.115 175.522 648.175 175.733C648.219 175.861 648.262 175.989 648.323 176.122C648.406 176.319 648.49 176.516 648.577 176.694C648.644 176.809 648.705 176.942 648.79 177.062C648.901 177.227 649.011 177.393 649.14 177.563C649.225 177.683 649.314 177.785 649.421 177.891C649.555 178.043 649.712 178.183 649.869 178.322C649.981 178.41 650.071 178.512 650.188 178.582C650.381 178.731 650.583 178.843 650.786 178.956C650.89 179.003 650.971 179.063 651.057 179.106C651.368 179.247 651.702 179.376 652.065 179.473L652.083 179.478L664.742 182.87L658.919 204.603C658.113 207.61 659.89 210.687 662.896 211.492C665.903 212.298 668.98 210.521 669.786 207.515L675.609 185.782L809.631 221.693L803.808 243.426C803.002 246.433 804.779 249.51 807.785 250.315C810.792 251.121 813.869 249.344 814.675 246.338L820.498 224.604L833.158 227.997L833.176 228.001C833.52 228.094 833.874 228.15 834.237 228.169C834.351 228.18 834.451 228.168 834.546 228.175C834.778 228.179 835.033 228.169 835.252 228.15C835.393 228.13 835.516 228.104 835.658 228.084C835.863 228.042 836.068 228 836.261 227.935C836.389 227.892 836.535 227.853 836.668 227.792C836.86 227.727 837.039 227.639 837.222 227.533C837.337 227.467 837.47 227.405 837.59 227.321C837.774 227.215 837.944 227.086 838.096 226.952C838.198 226.862 838.313 226.796 838.419 226.689C838.571 226.555 838.715 226.38 838.854 226.223C838.943 226.111 839.044 226.022 839.133 225.909C839.258 225.73 839.366 225.545 839.474 225.36C839.544 225.243 839.614 225.126 839.684 225.009C839.689 224.991 839.712 224.978 839.717 224.96L879.723 140.35C881.637 136.32 881.656 131.686 879.773 127.629C877.89 123.572 874.351 120.625 870.041 119.47ZM766.409 6.29125L820.742 20.8498C855.479 30.1576 867.254 42.8632 861.392 64.7414L848.1 114.348C831.057 113.042 814.426 122.154 806.638 137.888L802.787 145.668C776.452 133.546 748.398 126.029 719.53 123.36L720.085 114.696C721.226 97.1817 711.379 80.9746 695.967 73.5837L709.259 23.9774C715.121 2.0992 731.671 -3.01653 766.409 6.29125ZM869.552 135.567L831.56 215.922L659.504 169.819L666.78 81.234C666.896 79.7123 667.825 78.8547 668.354 78.4725C668.884 78.0902 670.026 77.5227 671.493 77.9158L685.728 81.7301C700.09 85.5785 709.832 99.1367 708.864 113.979L708.31 122.566C700.475 122.175 692.59 122.12 684.697 122.451C681.593 122.59 679.184 125.205 679.323 128.31C679.426 130.822 681.184 132.884 683.484 133.501C684.027 133.646 684.59 133.719 685.182 133.684C694.507 133.291 703.806 133.433 713.01 134.075C713.087 134.076 713.137 134.109 713.214 134.11C713.291 134.111 713.355 134.09 713.428 134.109C744.491 136.337 774.7 144.432 802.716 158.034C802.783 158.071 802.828 158.122 802.9 158.141C802.95 158.174 803.009 158.171 803.058 158.203C811.319 162.222 819.375 166.71 827.223 171.686C829.847 173.34 833.317 172.561 834.989 169.943C836.643 167.319 835.865 163.849 833.246 162.177C826.626 157.977 819.814 154.132 812.906 150.573L816.72 142.86C823.316 129.545 838.532 122.674 852.894 126.522L867.129 130.336C868.596 130.729 869.283 131.787 869.569 132.388C869.854 132.988 870.193 134.186 869.552 135.567Z" fill="#4F4F4F"/>
</g>
<g clip-path="url(#clip3_114_490)">
<path d="M-194.458 320.947L-131.516 186.015C-127.98 178.616 -119.147 175.353 -111.748 178.889L23.0031 241.783C30.4027 245.319 33.6652 254.151 30.1296 261.551L-32.8131 396.483C-36.3487 403.882 -45.1816 407.145 -52.5811 403.609L-187.332 340.715C-194.78 337.361 -197.994 328.347 -194.458 320.947Z" fill="#B8ABC9"/>
<path d="M-49.938 395.194L-193.74 356.662C-201.709 354.527 -206.301 346.309 -204.214 338.521L-165.683 194.719C-163.547 186.75 -155.329 182.158 -147.541 184.245L-3.73882 222.776C4.23007 224.912 8.82194 233.13 6.73521 240.918L-31.7965 384.72C-33.7506 392.738 -41.9691 397.329 -49.938 395.194Z" fill="#F7F7FB"/>
<path d="M-50.8505 400.773L-194.653 362.241C-205.519 359.33 -212.016 348.077 -209.104 337.211L-170.573 193.409C-167.661 182.542 -156.409 176.045 -145.542 178.957L-1.73964 217.489C9.12703 220.4 15.6236 231.653 12.7118 242.519L-25.8198 386.322C-28.5504 397.237 -39.8028 403.733 -50.8505 400.773ZM-148.454 189.824C-153.344 188.513 -158.396 191.43 -159.706 196.32L-198.238 340.122C-199.548 345.012 -196.631 350.064 -191.741 351.375L-47.9388 389.906C-43.0488 391.217 -37.9968 388.3 -36.6865 383.41L1.84518 239.608C3.15545 234.718 0.238647 229.666 -4.65135 228.355L-148.454 189.824Z" fill="#454B54"/>
</g>
<g clip-path="url(#clip4_114_490)">
<path d="M275.184 449.117L220.85 434.558L207.592 411.594L230.556 398.336L284.89 412.895" fill="white"/>
<path d="M287.801 402.028L360.246 421.439L383.21 408.181L369.951 385.217L297.507 365.806" fill="#4F4F4F"/>
<path d="M300.419 354.939L209.863 330.675L196.605 307.711L219.569 294.453L310.124 318.717" fill="white"/>
<path d="M260.14 505.261C257.061 504.436 255.337 501.451 256.162 498.372L309.544 299.15C310.369 296.071 313.354 294.347 316.433 295.172C319.512 295.997 321.236 298.983 320.411 302.062L267.029 501.284C266.204 504.363 263.219 506.086 260.14 505.261Z" fill="#4F4F4F"/>
<path d="M280.852 355.52L208.407 336.108C206.958 335.72 205.655 334.788 205.041 333.459L191.782 310.495C190.191 307.739 191.113 304.298 193.821 302.888L216.785 289.63C218.162 288.835 219.576 288.631 221.025 289.019L293.469 308.431C296.548 309.256 298.272 312.241 297.447 315.32C296.622 318.399 293.636 320.122 290.557 319.297L220.286 300.468L204.212 309.749L213.492 325.824L283.763 344.653C286.842 345.478 288.566 348.463 287.741 351.542C286.916 354.621 283.931 356.345 280.852 355.52Z" fill="#71C2FF"/>
<path d="M255.617 449.697L219.395 439.992C217.946 439.603 216.642 438.672 216.028 437.343L202.77 414.379C201.179 411.623 202.101 408.182 204.808 406.772L227.772 393.514C229.15 392.718 230.563 392.515 232.012 392.903L268.234 402.608C271.313 403.433 273.037 406.419 272.212 409.498C271.387 412.577 268.401 414.3 265.322 413.475L231.274 404.352L215.199 413.633L224.48 429.707L258.528 438.831C261.607 439.656 263.331 442.641 262.506 445.72C261.681 448.799 258.696 450.522 255.617 449.697Z" fill="#4F4F4F"/>
<path d="M358.79 426.873L286.345 407.461C283.266 406.636 281.543 403.651 282.368 400.572C283.193 397.493 286.178 395.77 289.257 396.595L359.528 415.424L375.603 406.143L366.322 390.068L296.051 371.239C292.972 370.414 291.249 367.429 292.074 364.35C292.899 361.271 295.884 359.547 298.963 360.372L371.407 379.784C372.856 380.172 374.159 381.104 374.774 382.433L388.032 405.397C389.623 408.153 388.701 411.594 385.994 413.004L363.03 426.262C361.833 427.106 360.239 427.261 358.79 426.873Z" fill="#4F4F4F"/>
<path d="M296.362 514.967L223.918 495.556C220.839 494.731 219.115 491.745 219.94 488.666C220.765 485.588 223.751 483.864 226.829 484.689L299.274 504.1C302.353 504.925 304.076 507.911 303.251 510.99C302.426 514.068 299.441 515.792 296.362 514.967Z" fill="#4F4F4F"/>
<path d="M323.529 522.246C322.08 521.858 320.777 520.927 320.162 519.597C320.03 519.368 319.764 518.908 319.632 518.679C319.548 518.268 319.415 518.038 319.331 517.628C319.247 517.217 319.344 516.855 319.26 516.444C319.357 516.082 319.273 515.671 319.37 515.309C319.467 514.946 319.564 514.584 319.842 514.27C319.94 513.908 320.218 513.595 320.496 513.281C320.774 512.967 321.004 512.835 321.282 512.521C321.56 512.207 321.79 512.075 322.249 511.809C323.856 510.881 325.813 510.823 327.527 511.671C327.889 511.768 328.203 512.046 328.517 512.324C328.83 512.602 329.144 512.881 329.277 513.11C329.59 513.388 329.723 513.618 329.988 514.077C330.784 515.455 330.987 516.868 330.599 518.317C330.502 518.68 330.405 519.042 330.127 519.356C330.03 519.718 329.752 520.031 329.473 520.345C329.195 520.659 328.917 520.973 328.687 521.105C328.409 521.419 328.18 521.551 327.769 521.635C327.539 521.768 327.08 522.033 326.669 522.117C326.258 522.201 326.029 522.334 325.618 522.418C325.207 522.502 324.845 522.405 324.434 522.489C324.253 522.441 323.891 522.343 323.529 522.246Z" fill="#4F4F4F"/>
</g>
<path d="M637.1 600.444C695.216 592.917 736.223 539.847 728.877 481.779C670.761 489.307 629.753 542.376 637.1 600.444Z" fill="#ADF9D2"/>
<path d="M682.412 583.468C706.056 567.674 722.62 542.802 727.872 514.509C724.78 514.457 721.639 514.586 718.68 514.764C715.31 515.026 712.403 512.111 712.733 508.706C713.455 500.941 713.452 492.981 712.858 485.057C678.351 495.029 652.026 521.557 641.418 554.625C640.933 556.436 640.315 558.018 639.829 559.829C639.781 560.01 639.781 560.01 639.732 560.191C639.296 561.821 638.81 563.632 638.555 565.311L638.506 565.492C637.717 569.163 637.108 572.882 636.862 576.698C636.814 576.879 636.814 576.879 636.765 577.061C636.51 578.739 636.484 580.285 636.409 582.012C636.444 582.604 636.347 582.966 636.383 583.558C636.405 584.923 636.247 586.239 636.269 587.604C636.305 588.196 636.34 588.788 636.376 589.38C636.399 590.744 636.47 591.928 636.492 593.293C636.528 593.885 636.563 594.477 636.647 594.887C636.754 596.663 637.041 598.487 637.1 600.444C638.924 600.156 640.748 599.868 642.572 599.581C642.983 599.497 643.574 599.461 643.985 599.377C645.628 599.041 647.271 598.705 648.733 598.32C648.963 598.187 649.144 598.236 649.374 598.103C651.246 597.635 652.938 597.117 654.81 596.648C655.221 596.564 655.632 596.48 656.091 596.215C657.602 595.649 659.112 595.083 660.804 594.566C660.985 594.615 661.033 594.434 661.214 594.482C664.875 593.134 668.404 591.556 671.8 589.748L672.03 589.616C675.837 587.724 679.1 585.687 682.412 583.468C682.364 583.649 682.364 583.649 682.412 583.468C682.364 583.649 682.364 583.649 682.412 583.468Z" fill="#6DC289"/>
<path d="M635.644 605.877C633.47 605.295 631.818 603.493 631.495 601.077C627.762 571.542 635.623 542.202 653.805 518.539C671.986 494.876 698.346 479.81 727.881 476.077C730.889 475.718 733.809 477.86 734.168 480.868C737.901 510.403 730.039 539.743 711.858 563.406C693.677 587.069 667.316 602.135 637.781 605.868C637.141 606.084 636.368 606.071 635.644 605.877ZM723.857 488.199C699.538 492.747 678.169 505.85 662.831 525.422C647.492 544.994 640.398 569.299 642.168 593.843C666.486 589.295 687.856 576.192 703.194 556.62C718.532 537.048 725.579 512.924 723.857 488.199Z" fill="#4F4F4F"/>
<path d="M637.643 600.59C591.077 565.013 582.098 498.549 617.675 451.983C664.241 487.56 673.22 554.023 637.643 600.59Z" fill="#ADF9D2"/>
<path d="M629.149 462.045C609.114 490.453 600.653 525.65 605.576 560.162C612.502 575.606 623.32 589.569 637.824 600.638C670.196 558.066 665.411 499.132 629.149 462.045Z" fill="white"/>
<path d="M635.463 605.829C634.738 605.635 634.062 605.259 633.567 604.933C631.142 603.118 630.566 599.47 632.562 597.093C648.748 575.807 655.833 549.364 652.278 522.789C648.962 498.218 636.874 475.956 618.039 460.039C613.889 466.109 610.415 472.555 607.798 479.424C606.66 482.225 603.361 483.67 600.56 482.531C597.759 481.393 596.314 478.094 597.452 475.293C601.16 465.804 606.316 456.704 612.594 448.486C613.477 447.364 614.855 446.568 616.268 446.365C617.682 446.161 619.312 446.598 620.434 447.481C644.145 465.481 659.392 491.89 663.355 521.292C667.269 550.876 659.589 580.264 641.407 603.927C639.968 605.677 637.636 606.411 635.463 605.829Z" fill="#4F4F4F"/>
<path d="M636.375 600.25C685.818 613.498 736.798 584.065 750.047 534.621C737.731 531.321 725.28 530.703 713.2 532.319C703.536 533.612 692.752 541.981 684.039 546.246C660.606 557.632 643.606 573.264 636.375 600.25Z" fill="#ADF9D2"/>
<path d="M708.5 533.195C674.735 539.676 645.838 564.933 636.375 600.25C645.068 602.579 653.739 603.544 662.339 603.324C685.297 585.018 701.04 560.313 708.5 533.195Z" fill="#6DC289"/>
<path d="M636.375 600.25C586.932 587.001 557.498 536.021 570.747 486.578C620.19 499.826 649.623 550.806 636.375 600.25Z" fill="#ADF9D2"/>
<path d="M636.375 600.25C603.362 543.069 622.871 470.263 680.051 437.25C713.064 494.43 693.555 567.237 636.375 600.25Z" fill="#ADF9D2"/>
<path d="M654.062 576.26C653.156 576.017 652.299 575.594 651.72 574.856C649.392 572.679 649.36 569.177 651.537 566.848C668.117 549.162 677.782 526.129 679.056 501.817C679.289 498.774 681.876 496.361 684.968 496.413C688.012 496.647 690.424 499.234 690.372 502.326C688.963 529.319 678.074 554.742 659.825 574.31C658.108 576.374 656.054 576.794 654.062 576.26Z" fill="#6DC289"/>
<path d="M701.22 611.801L681.841 606.609C716.357 598.775 745.677 572.662 755.48 536.077C756.305 532.998 754.581 530.013 751.503 529.188C738.644 525.743 725.468 524.93 712.566 526.714C709.558 527.073 707.417 529.993 707.776 533.001C708.135 536.009 711.055 538.15 714.063 537.791C723.727 536.498 733.365 536.751 742.976 538.55C729.862 577.353 691.208 601.354 651.211 597.043C674.191 580.101 690.561 555.952 697.673 527.964C706.033 496.04 701.362 462.76 684.97 434.103C683.512 431.577 679.89 430.607 677.364 432.065C628.583 460.535 604.648 517.985 618.835 572.256C619.605 575.18 622.803 577.008 625.727 576.238C628.651 575.469 630.478 572.27 629.709 569.346C617.229 521.744 637.085 471.548 677.964 445.038C690.737 469.813 693.807 498.199 686.709 525.415C679.174 554.26 660.98 578.696 635.477 594.186C592.301 581.452 566.024 537.529 574.676 493.648C583.586 496.618 591.878 501.169 599.468 506.891C601.893 508.706 605.493 508.312 607.308 505.886C609.122 503.461 608.728 499.861 606.303 498.046C596.154 490.28 584.651 484.674 572.154 481.326C569.075 480.501 566.09 482.224 565.265 485.303C555.462 521.888 567.616 559.115 593.772 583.205L574.394 578.013C571.315 577.188 568.329 578.911 567.504 581.99C566.679 585.069 568.403 588.054 571.482 588.879L698.26 622.849C701.338 623.674 704.324 621.951 705.149 618.872C705.974 615.793 704.299 612.626 701.22 611.801Z" fill="#4F4F4F"/>
<path d="M728.386 619.081C726.945 618.695 725.41 618.897 724.118 619.643C722.826 620.389 721.883 621.617 721.497 623.058C721.111 624.499 721.313 626.035 722.059 627.327C722.805 628.619 724.034 629.561 725.475 629.947C726.916 630.333 728.451 630.131 729.743 629.385C731.035 628.64 731.978 627.411 732.364 625.97C732.75 624.529 732.548 622.994 731.802 621.702C731.056 620.41 729.827 619.467 728.386 619.081V619.081Z" fill="#4F4F4F"/>
<g clip-path="url(#clip5_114_490)">
<path d="M1127.11 593.921L964.109 550.245L943.242 628.123C941.883 633.194 944.8 638.246 949.871 639.605L1094.76 678.427C1099.83 679.786 1104.88 676.869 1106.24 671.798L1127.11 593.921Z" fill="white"/>
<path d="M1072.72 528.876C1067.91 527.589 1062.79 528.263 1058.49 530.749C1054.18 533.236 1051.04 537.331 1049.75 542.134C1048.46 546.938 1049.14 552.056 1051.63 556.362C1054.11 560.669 1058.21 563.811 1063.01 565.098C1067.81 566.385 1072.93 565.712 1077.24 563.225C1081.54 560.739 1084.69 556.643 1085.97 551.84C1087.26 547.037 1086.59 541.919 1084.1 537.612C1081.61 533.306 1077.52 530.163 1072.72 528.876Z" fill="#6F4986"/>
<path d="M1061.55 570.532C1048.51 567.038 1040.82 553.718 1044.32 540.678C1047.81 527.638 1061.13 519.949 1074.17 523.443C1087.21 526.937 1094.9 540.256 1091.41 553.296C1087.91 566.336 1074.59 574.026 1061.55 570.532ZM1071.26 534.309C1064.2 532.417 1057.08 536.527 1055.19 543.59C1053.29 550.654 1057.4 557.772 1064.47 559.665C1071.53 561.558 1078.65 557.448 1080.54 550.384C1082.43 543.321 1078.32 536.202 1071.26 534.309Z" fill="#4F4F4F"/>
<path d="M1049.75 542.134C1047.08 552.095 1036.75 558.062 1026.79 555.393C1021.35 553.937 1016.96 550.042 1014.72 545.366C1012.83 541.559 1012.32 536.956 1013.53 532.429C1016.2 522.468 1026.53 516.501 1036.49 519.17C1046.45 521.839 1052.42 532.173 1049.75 542.134Z" fill="#B379DB"/>
<path d="M1025.69 537.045C1025.32 536.948 1024.96 536.851 1024.65 536.573C1024.29 536.476 1023.97 536.197 1023.66 535.919C1023.35 535.641 1023.03 535.363 1022.9 535.133C1022.59 534.855 1022.45 534.625 1022.19 534.166C1022.05 533.936 1021.79 533.477 1021.71 533.066C1021.62 532.656 1021.49 532.426 1021.4 532.015C1021.32 531.605 1021.42 531.242 1021.33 530.832C1021.43 530.469 1021.35 530.059 1021.44 529.696C1021.83 528.247 1022.76 526.944 1024.09 526.33C1024.32 526.197 1024.78 525.932 1025.19 525.848C1025.6 525.764 1025.83 525.631 1026.24 525.547C1026.65 525.463 1027.02 525.56 1027.43 525.476C1029.34 525.599 1031 526.628 1031.93 528.235C1032.77 529.432 1032.93 531.027 1032.54 532.476C1032.44 532.838 1032.35 533.2 1032.07 533.514C1031.97 533.876 1031.69 534.19 1031.41 534.503C1031.14 534.817 1030.86 535.131 1030.63 535.263C1030.35 535.577 1030.12 535.71 1029.66 535.975C1028.78 537.097 1027.14 537.433 1025.69 537.045ZM1061.91 546.751C1060.46 546.362 1059.16 545.431 1058.54 544.101C1057.75 542.724 1057.54 541.31 1057.93 539.861C1058.32 538.412 1059.25 537.109 1060.58 536.495C1062.19 535.567 1064.14 535.509 1065.86 536.356C1066.22 536.453 1066.53 536.731 1066.85 537.01C1067.16 537.288 1067.48 537.566 1067.61 537.796C1067.92 538.074 1068.05 538.303 1068.32 538.763C1069.12 540.14 1069.32 541.554 1068.93 543.003C1068.54 544.452 1067.61 545.755 1066.28 546.369C1066.05 546.502 1065.59 546.767 1065.18 546.851C1064.77 546.935 1064.54 547.068 1064.13 547.152C1063.72 547.236 1063.36 547.139 1062.95 547.223C1062.54 547.307 1062.27 546.848 1061.91 546.751Z" fill="white"/>
<path d="M1025.33 560.826C1022.25 560.001 1020.53 557.016 1021.35 553.937C1022.18 550.858 1025.16 549.134 1028.24 549.959C1035.31 551.852 1042.43 547.742 1044.32 540.678C1046.21 533.615 1042.1 526.496 1035.04 524.604C1027.97 522.711 1020.86 526.821 1018.96 533.884C1018.14 536.963 1015.15 538.687 1012.07 537.862C1008.99 537.037 1007.27 534.052 1008.1 530.973C1011.59 517.933 1024.91 510.243 1037.95 513.737C1050.99 517.231 1058.68 530.55 1055.19 543.59C1051.69 556.63 1038.37 564.32 1025.33 560.826Z" fill="#4F4F4F"/>
<path d="M1103.14 639.909L961.873 602.057C955.897 600.455 952.317 594.255 953.918 588.278C955.52 582.301 961.72 578.722 967.697 580.323L1108.96 618.175C1114.94 619.777 1118.52 625.977 1116.92 631.954C1115.32 637.931 1109.12 641.51 1103.14 639.909Z" fill="#FFDD7D"/>
<path d="M1115.46 637.387C1112.38 636.562 1110.66 633.577 1111.49 630.498C1112.31 627.419 1110.59 624.434 1107.51 623.609C1104.43 622.784 1102.71 619.799 1103.53 616.72C1104.36 613.641 1107.34 611.917 1110.42 612.742C1119.47 615.169 1124.78 624.354 1122.35 633.41C1121.53 636.489 1118.54 638.212 1115.46 637.387ZM1012.94 621.563L949.551 604.578C946.472 603.753 944.749 600.768 945.573 597.689C946.398 594.61 949.384 592.886 952.463 593.711L1015.85 610.696C1018.93 611.521 1020.65 614.507 1019.83 617.586C1019 620.665 1016.02 622.388 1012.94 621.563Z" fill="#4F4F4F"/>
<path d="M1101.68 645.342C1098.61 644.517 1096.88 641.532 1097.71 638.453C1098.53 635.374 1101.52 633.65 1104.6 634.475C1107.67 635.3 1110.66 633.577 1111.49 630.498C1112.31 627.419 1115.3 625.696 1118.37 626.521C1121.45 627.346 1123.18 630.331 1122.35 633.41C1119.93 642.465 1110.74 647.769 1101.68 645.342Z" fill="#4F4F4F"/>
<path d="M1092.95 677.942L951.683 640.09C945.706 638.488 942.126 632.288 943.728 626.311C945.329 620.335 951.529 616.755 957.506 618.357L1098.77 656.209C1104.75 657.81 1108.33 664.011 1106.73 669.987C1105.13 675.964 1098.93 679.544 1092.95 677.942Z" fill="#FFDD7D"/>
<path d="M1105.27 675.421C1102.19 674.596 1100.47 671.61 1101.29 668.531C1102.12 665.452 1100.4 662.467 1097.32 661.642C1094.24 660.817 1092.51 657.832 1093.34 654.753C1094.16 651.674 1097.15 649.95 1100.23 650.775C1109.28 653.202 1114.59 662.387 1112.16 671.443C1111.34 674.522 1108.35 676.245 1105.27 675.421Z" fill="#4F4F4F"/>
<path d="M1091.49 683.375L939.36 642.611C936.281 641.786 934.558 638.801 935.383 635.722C936.208 632.643 939.193 630.92 942.272 631.745L1094.41 672.509C1097.48 673.334 1100.47 671.61 1101.29 668.531C1102.12 665.452 1105.1 663.729 1108.18 664.554C1111.26 665.379 1112.99 668.364 1112.16 671.443C1109.73 680.499 1100.55 685.802 1091.49 683.375Z" fill="#4F4F4F"/>
<path d="M1113.33 601.875L1106.09 599.934C1101.02 598.576 1095.96 601.492 1094.6 606.563L1089.27 626.486C1087.91 631.557 1082.86 634.474 1077.78 633.115C1072.71 631.756 1069.8 626.704 1071.16 621.633L1076.49 601.711C1077.85 596.639 1074.94 591.587 1069.86 590.229C1064.79 588.87 1059.74 591.787 1058.38 596.858L1047.22 638.513C1045.86 643.584 1040.81 646.501 1035.74 645.142C1030.67 643.784 1027.75 638.732 1029.11 633.66L1040.27 592.005C1041.63 586.934 1038.71 581.882 1033.64 580.523L972.064 564.023C966.088 562.422 962.508 556.221 964.11 550.245C965.711 544.268 971.911 540.688 977.888 542.29L1119.15 580.142C1125.13 581.744 1128.71 587.944 1127.11 593.921C1125.51 599.897 1119.31 603.477 1113.33 601.875Z" fill="#FFA6B5"/>
<path d="M1038.82 597.438C1035.74 596.613 1034.01 593.628 1034.84 590.549C1035.37 588.557 1034.18 586.49 1032.19 585.956L1014.8 581.297C1011.72 580.473 1010 577.487 1010.82 574.408C1011.65 571.329 1014.63 569.606 1017.71 570.431L1035.1 575.09C1043.07 577.225 1047.84 585.492 1045.7 593.461C1044.88 596.54 1041.89 598.263 1038.82 597.438Z" fill="#4F4F4F"/>
<path d="M1034.28 650.576C1026.31 648.44 1021.54 640.173 1023.68 632.205L1029.99 608.66C1030.81 605.581 1033.8 603.858 1036.87 604.683C1039.95 605.508 1041.68 608.493 1040.85 611.572L1034.54 635.116C1034.01 637.109 1035.2 639.175 1037.19 639.709C1039.19 640.243 1041.25 639.05 1041.79 637.057L1052.95 595.402C1055.08 587.433 1063.35 582.66 1071.32 584.795C1079.29 586.931 1084.06 595.198 1081.93 603.166C1081.1 606.245 1078.12 607.969 1075.04 607.144C1071.96 606.319 1070.24 603.334 1071.06 600.255C1071.59 598.263 1070.4 596.196 1068.41 595.662C1066.42 595.128 1064.35 596.321 1063.82 598.314L1052.65 639.969C1050.52 647.938 1042.25 652.711 1034.28 650.576Z" fill="#4F4F4F"/>
<path d="M1076.33 638.548C1068.36 636.413 1063.59 628.146 1065.72 620.177L1066.21 618.366C1067.03 615.287 1070.02 613.563 1073.1 614.388C1076.18 615.213 1077.9 618.199 1077.07 621.278L1076.59 623.089C1076.06 625.081 1077.25 627.148 1079.24 627.681C1081.23 628.215 1083.3 627.022 1083.83 625.03L1089.17 605.108C1091.31 597.139 1099.57 592.366 1107.54 594.501L1114.79 596.442C1117.87 597.267 1120.85 595.544 1121.68 592.465C1122.5 589.386 1120.78 586.4 1117.7 585.575L976.432 547.723C973.353 546.898 970.368 548.622 969.543 551.701C968.718 554.78 970.442 557.765 973.52 558.59L1017.71 570.431C1020.79 571.256 1022.51 574.241 1021.69 577.32C1020.86 580.399 1017.88 582.122 1014.8 581.297L970.609 569.457C961.553 567.03 956.25 557.845 958.676 548.789C961.103 539.733 970.288 534.43 979.344 536.857L1120.61 574.709C1129.67 577.135 1134.97 586.321 1132.54 595.376C1130.12 604.432 1120.93 609.735 1111.88 607.309L1104.63 605.368C1102.64 604.834 1100.57 606.027 1100.04 608.019L1094.7 627.942C1092.56 635.91 1084.3 640.683 1076.33 638.548Z" fill="#4F4F4F"/>
</g>
<g clip-path="url(#clip6_114_490)">
<path d="M1001.29 1099.72L820.177 1051.19C810.216 1048.52 804.25 1038.18 806.919 1028.22L855.447 847.111C858.116 837.15 868.45 831.184 878.411 833.853L1059.52 882.382C1069.48 885.051 1075.45 895.385 1072.78 905.346L1024.25 1086.46C1021.58 1096.42 1011.25 1102.38 1001.29 1099.72Z" fill="white"/>
<path d="M999.832 1105.15L818.721 1056.62C805.681 1053.13 797.991 1039.81 801.485 1026.77L836.911 894.556C837.736 891.477 840.722 889.753 843.8 890.578C846.879 891.403 848.603 894.388 847.778 897.467L812.352 1029.68C810.459 1036.74 814.569 1043.86 821.633 1045.75L1002.74 1094.28C1009.81 1096.17 1016.93 1092.06 1018.82 1085L1067.35 903.89C1069.24 896.827 1065.13 889.708 1058.07 887.815L876.955 839.286C869.892 837.394 862.773 841.504 860.881 848.567L855.542 868.489L1043.9 918.959C1046.98 919.784 1048.7 922.77 1047.88 925.848C1047.05 928.927 1044.07 930.651 1040.99 929.826L847.197 877.9C844.119 877.075 842.395 874.09 843.22 871.011L850.014 845.656C853.508 832.616 866.827 824.926 879.867 828.42L1060.98 876.948C1074.02 880.442 1081.71 893.762 1078.21 906.802L1029.69 1087.91C1026.19 1100.95 1012.87 1108.64 999.832 1105.15Z" fill="#4F4F4F"/>
<path d="M874.754 861.99C877.755 862.794 880.839 861.014 881.643 858.013C882.447 855.012 880.667 851.928 877.666 851.124C874.665 850.32 871.581 852.1 870.777 855.101C869.973 858.102 871.753 861.186 874.754 861.99Z" fill="#4F4F4F"/>
<path d="M892.865 866.843C895.866 867.647 898.95 865.867 899.754 862.866C900.558 859.865 898.778 856.781 895.777 855.977C892.776 855.173 889.692 856.953 888.888 859.954C888.084 862.955 889.864 866.039 892.865 866.843Z" fill="#4F4F4F"/>
<path d="M910.976 871.696C913.977 872.5 917.061 870.719 917.866 867.719C918.67 864.718 916.889 861.634 913.888 860.829C910.887 860.025 907.803 861.806 906.999 864.807C906.195 867.808 907.976 870.892 910.976 871.696Z" fill="#4F4F4F"/>
<path d="M954.539 1004.69L908.175 992.267C906.002 991.685 903.657 993.192 903.437 995.462C901.935 1009.04 910.495 1022.01 924.078 1025.65C937.661 1029.28 951.559 1022.33 957.045 1009.83C957.99 1007.75 956.894 1005.32 954.539 1004.69Z" fill="#4F4F4F"/>
<path d="M909.043 973.088C916.545 975.098 924.256 970.646 926.266 963.144C928.276 955.643 923.824 947.932 916.323 945.922C908.821 943.911 901.11 948.363 899.1 955.865C897.089 963.367 901.541 971.078 909.043 973.088Z" fill="#4F4F4F"/>
<path d="M974.616 981.923L958.316 977.556C955.237 976.731 953.514 973.745 954.339 970.666C955.164 967.588 958.149 965.864 961.228 966.689L977.528 971.056C980.607 971.881 982.33 974.867 981.505 977.946C980.68 981.025 977.695 982.748 974.616 981.923Z" fill="#4F4F4F"/>
</g>
<g clip-path="url(#clip7_114_490)">
<path d="M1527.34 681.945C1525.61 673.911 1524.95 672.762 1521.35 665.197C1501.11 621.922 1447.02 592.677 1393.52 598.918C1335.6 605.721 1298.22 651.029 1308.74 701.599C1316.82 740.259 1350.47 770.433 1391.89 782.5C1416.91 789.789 1442.86 774.807 1449.61 749.633L1454.46 731.522C1457.13 721.561 1467.47 715.595 1477.43 718.264L1488.66 721.272C1493.73 722.631 1498.79 721.852 1504.04 720.349C1520.73 715.308 1530.47 698.507 1527.34 681.945ZM1407.98 755.755C1395.68 759.641 1382.43 752.596 1378.72 740.345C1374.84 728.045 1381.88 714.792 1394.13 711.086C1406.43 707.2 1419.69 714.245 1423.39 726.496C1427.28 738.796 1420.28 751.869 1407.98 755.755Z" fill="white"/>
<path d="M1393.65 761.427C1391.48 760.844 1389.53 760.129 1387.51 759.004C1380.7 755.432 1375.57 749.206 1373.29 741.8C1368.63 726.576 1377.27 710.257 1392.5 705.601C1407.72 700.945 1424.04 709.588 1428.88 724.86C1433.53 740.084 1424.89 756.403 1409.62 761.24C1404.36 762.744 1398.9 762.834 1393.65 761.427ZM1405.6 716.1C1402.52 715.275 1399.02 715.307 1395.87 716.209C1386.54 719.145 1381.14 729.151 1384.08 738.479C1385.41 742.913 1388.67 746.698 1392.72 748.949C1396.96 751.249 1401.73 751.556 1406.35 750.27C1415.67 747.334 1421.07 737.328 1418.14 728C1416.24 722.055 1411.4 717.653 1405.6 716.1Z" fill="#4F4F4F"/>
<path d="M1390.61 787.982C1344.61 775.656 1311.99 743.816 1303.35 702.873C1298.35 678.82 1303.25 654.706 1317.46 635.024C1333.85 612.241 1361.39 597.104 1392.84 593.494C1447.34 587.134 1504.78 616.89 1526.43 662.872L1527.53 665.301C1530.3 670.897 1531.26 673.096 1532.86 680.9C1536.48 700.701 1524.93 719.927 1505.68 725.834C1500.83 727.253 1494.4 728.828 1487.33 726.935L1476.1 723.927C1471.21 722.616 1465.73 724.252 1462.52 728.246C1460.53 730.623 1456.93 731.018 1454.55 729.022C1452.17 727.026 1451.78 723.426 1453.77 721.049C1459.81 713.737 1469.78 710.585 1479.01 713.06L1490.24 716.069C1493.5 716.942 1497.28 716.596 1502.54 715.093C1516.3 710.822 1524.63 697.135 1522 683.037C1520.61 676.646 1520.12 675.547 1517.67 670.229L1516.57 667.801C1496.58 625.757 1444.23 598.725 1394.15 604.523C1365.72 607.774 1341.11 621.368 1326.58 641.545C1314.24 658.621 1309.98 679.607 1314.26 700.555C1321.88 737.342 1351.51 765.857 1393.52 777.116C1413.26 782.405 1433.84 772.973 1442.02 754.781C1443.34 752.029 1446.59 750.765 1449.57 751.952C1452.32 753.272 1453.59 756.522 1452.4 759.504C1441.73 782.657 1415.79 794.728 1390.61 787.982Z" fill="#4F4F4F"/>
<path d="M1441.95 623.818C1439.29 624.636 1436.82 625.97 1434.67 627.744C1432.53 629.518 1430.75 631.697 1429.45 634.156C1428.15 636.615 1427.35 639.306 1427.08 642.076C1426.82 644.846 1427.11 647.641 1427.93 650.3C1428.75 652.959 1430.08 655.432 1431.85 657.575C1433.63 659.719 1435.81 661.492 1438.27 662.794C1440.73 664.096 1443.42 664.9 1446.19 665.162C1448.96 665.423 1451.75 665.137 1454.41 664.318C1457.07 663.5 1459.54 662.166 1461.69 660.392C1463.83 658.618 1465.6 656.439 1466.9 653.98C1468.21 651.521 1469.01 648.83 1469.27 646.06C1469.53 643.29 1469.25 640.495 1468.43 637.836C1467.61 635.177 1466.28 632.705 1464.5 630.561C1462.73 628.417 1460.55 626.644 1458.09 625.342C1455.63 624.041 1452.94 623.236 1450.17 622.974C1447.4 622.713 1444.61 622.999 1441.95 623.818Z" fill="#ADF9D2"/>
<path d="M1388.9 618.153C1383.52 619.806 1379.03 623.524 1376.4 628.491C1373.77 633.457 1373.22 639.264 1374.88 644.635C1376.53 650.006 1380.25 654.5 1385.22 657.129C1390.18 659.758 1395.99 660.306 1401.36 658.653C1406.73 657 1411.22 653.282 1413.85 648.315C1416.48 643.349 1417.03 637.542 1415.38 632.171C1413.72 626.8 1410.01 622.306 1405.04 619.677C1400.07 617.048 1394.27 616.5 1388.9 618.153Z" fill="#ADF9D2"/>
<path d="M1343.98 649.023C1338.61 650.676 1334.12 654.395 1331.49 659.361C1328.86 664.327 1328.31 670.135 1329.97 675.505C1331.62 680.876 1335.34 685.37 1340.3 687.999C1345.27 690.628 1351.08 691.176 1356.45 689.524C1361.82 687.871 1366.31 684.152 1368.94 679.186C1371.57 674.219 1372.12 668.412 1370.47 663.041C1368.81 657.671 1365.1 653.176 1360.13 650.548C1355.16 647.919 1349.36 647.37 1343.98 649.023V649.023Z" fill="#ADF9D2"/>
</g>
<g clip-path="url(#clip8_114_490)">
<path d="M280.245 788.103C290.063 799.274 293.717 814.618 289.883 828.925L279.546 867.502C278.333 872.03 274.319 875.419 269.584 875.703L267.579 875.942L68.357 822.561L66.74 821.351C62.8301 818.556 60.9999 813.796 62.2131 809.268L72.5497 770.691C76.3835 756.383 87.2191 744.922 101.308 740.156L280.245 788.103Z" fill="#A5AA6A"/>
<path d="M118.618 808.852L111.824 834.208L267.579 875.942L269.584 875.703C274.368 875.238 278.333 872.03 279.546 867.502L288.282 834.902L141.582 795.594C131.62 792.925 121.287 798.891 118.618 808.852Z" fill="#7B7C3C"/>
<path d="M84.2067 799.632C94.2092 802.312 104.49 796.376 107.171 786.374C109.851 776.371 103.915 766.09 93.9124 763.41C83.9099 760.729 73.6286 766.665 70.9484 776.668C68.2683 786.67 74.2042 796.952 84.2067 799.632Z" fill="white"/>
<path d="M265.318 848.16C275.32 850.841 285.602 844.905 288.282 834.902C290.962 824.9 285.026 814.618 275.023 811.938C265.021 809.258 254.74 815.194 252.059 825.196C249.379 835.199 255.315 845.48 265.318 848.16Z" fill="white"/>
<path d="M101.308 740.156L135.878 696.62C140.523 690.877 147.749 688.542 154.088 690.241L258.951 718.339C265.471 720.086 270.513 725.902 271.712 733.017L280.245 788.103" fill="white"/>
<path d="M209.243 774.901L278.79 793.536L273.057 739.589L227.779 727.457C224.7 726.632 221.715 728.355 220.89 731.434L209.243 774.901Z" fill="#E4E4E7"/>
<path d="M106.39 832.752L70.1682 823.046L63.3742 848.402L99.5964 858.107L106.39 832.752Z" fill="#4F4F4F"/>
<path d="M265.768 875.457L229.546 865.751L222.752 891.107L258.974 900.813L265.768 875.457Z" fill="#4F4F4F"/>
<path d="M305.507 792.348C305.922 789.353 303.787 786.452 300.792 786.038C296.892 785.381 291.627 784.746 285.505 783.688C285.553 783.507 285.421 783.278 285.469 783.096L277.158 733.7C275.671 724.76 269.339 717.24 260.562 714.5L258.751 714.015C239.349 707.457 228.266 703.905 208.344 698.567C188.422 693.229 177.047 690.764 157.063 686.38L155.252 685.894C146.281 683.879 137.037 687.225 131.28 694.224L99.5165 733.076C99.468 733.258 99.2383 733.39 99.1898 733.571C93.3587 731.427 88.4817 729.343 84.7755 727.962C81.9747 726.823 78.6757 728.269 77.5371 731.069C76.3984 733.87 77.8438 737.169 80.6445 738.308C98.6681 745.661 145.485 763.64 187.865 774.996C230.245 786.352 279.779 794.189 299.016 797.014C302.192 797.477 305.093 795.343 305.507 792.348ZM110.309 737.715L140.028 701.42C143.184 697.608 148.127 695.826 152.884 696.907L154.695 697.392C175.09 701.692 185.691 704.144 205.432 709.434C225.173 714.723 235.532 718.081 255.393 724.374L257.204 724.859C261.864 726.302 265.253 730.316 266.081 735.196L273.671 781.488C250.45 777.595 219.03 771.7 190.777 764.129C162.523 756.559 132.365 745.955 110.309 737.715Z" fill="#4F4F4F"/>
<path d="M276.479 806.505C263.439 803.011 250.12 810.701 246.626 823.741C243.132 836.781 250.822 850.1 263.862 853.594C268.571 854.855 273.306 854.571 277.559 853.187L274.113 866.046C273.288 869.125 270.303 870.849 267.224 870.024L71.624 817.613C68.5451 816.788 66.8216 813.803 67.6465 810.724L71.0921 797.865C74.0834 801.19 78.0419 803.803 82.7507 805.065C95.7907 808.559 109.11 800.869 112.604 787.829C116.098 774.789 108.408 761.47 95.3682 757.976C82.3282 754.482 69.0091 762.172 65.515 775.212L56.7799 807.812C54.8873 814.875 57.8136 822.065 63.5216 826.118L57.9408 846.946C57.1158 850.025 58.8394 853.01 61.9183 853.835L98.1405 863.541C101.219 864.366 104.205 862.642 105.03 859.563L110.368 839.641L222.657 869.729L217.319 889.651C216.494 892.73 218.217 895.715 221.296 896.54L257.518 906.246C260.597 907.071 263.582 905.347 264.407 902.268L269.988 881.441C276.909 880.966 283.087 876.021 284.98 868.958L293.715 836.358C297.209 823.318 289.519 809.999 276.479 806.505ZM92.4565 768.843C99.5198 770.736 103.63 777.854 101.737 784.918C99.8446 791.981 92.7258 796.091 85.6625 794.198C78.5991 792.306 74.4891 785.187 76.3817 778.124C78.2743 771.06 85.3931 766.95 92.4565 768.843ZM95.6189 851.218L70.2633 844.424L74.1456 829.935L99.5012 836.729L95.6189 851.218ZM254.997 893.923L229.641 887.129L233.523 872.641L258.879 879.435L254.997 893.923ZM266.774 842.727C259.71 840.834 255.6 833.716 257.493 826.652C259.385 819.589 266.504 815.479 273.568 817.371C280.631 819.264 284.741 826.383 282.848 833.446C280.956 840.51 273.837 844.62 266.774 842.727Z" fill="#4F4F4F"/>
</g>
<g clip-path="url(#clip9_114_490)">
<path d="M633.788 972.127L607.272 926.199L480.494 892.229C470.533 889.56 464.566 879.226 467.236 869.265L498.779 751.542C501.448 741.581 511.782 735.615 521.743 738.284L666.632 777.107C676.593 779.776 682.559 790.11 679.89 800.071L633.788 972.127Z" fill="white"/>
<path d="M632.332 977.56C630.883 977.172 629.761 976.289 628.966 974.911L603.642 931.05L479.038 897.662C465.998 894.168 458.308 880.849 461.802 867.809L493.346 750.087C496.84 737.047 510.159 729.357 523.199 732.851L668.088 771.674C681.128 775.168 688.818 788.487 685.323 801.527L639.221 973.582C638.639 975.756 636.837 977.408 634.421 977.732C633.83 977.767 633.057 977.754 632.332 977.56ZM520.287 743.718C513.224 741.825 506.105 745.935 504.212 752.998L472.669 870.721C470.776 877.784 474.886 884.903 481.95 886.795L608.727 920.765C610.176 921.154 611.48 922.085 612.094 923.414L631.849 957.631L674.457 798.615C676.349 791.552 672.239 784.433 665.176 782.54L520.287 743.718ZM625.053 1004.73L489.22 968.33C486.141 967.505 484.417 964.52 485.242 961.441C486.067 958.362 489.052 956.638 492.131 957.463L627.965 993.86C631.043 994.685 632.767 997.67 631.942 1000.75C631.117 1003.83 628.132 1005.55 625.053 1004.73Z" fill="#4F4F4F"/>
<path d="M619.213 838.165L532.28 814.871C529.201 814.046 527.477 811.061 528.302 807.982C529.127 804.903 532.113 803.179 535.192 804.004L622.125 827.298C625.204 828.123 626.927 831.108 626.102 834.187C625.277 837.266 622.292 838.99 619.213 838.165ZM584.767 858.052L525.001 842.038C521.922 841.213 520.198 838.227 521.023 835.148C521.848 832.07 524.833 830.346 527.912 831.171L587.679 847.185C590.758 848.01 592.481 850.996 591.656 854.075C590.831 857.154 587.846 858.877 584.767 858.052ZM614.846 854.465C613.405 854.079 611.869 854.281 610.577 855.027C609.285 855.773 608.343 857.001 607.956 858.442C607.57 859.883 607.772 861.419 608.518 862.711C609.264 864.003 610.493 864.945 611.934 865.331C613.375 865.718 614.91 865.515 616.202 864.769C617.494 864.024 618.437 862.795 618.823 861.354C619.209 859.913 619.007 858.378 618.261 857.086C617.515 855.794 616.287 854.851 614.846 854.465Z" fill="#71C2FF"/>
<path d="M464.965 950.184C463.524 949.798 461.988 950 460.696 950.746C459.404 951.492 458.462 952.721 458.075 954.162C457.689 955.603 457.891 957.138 458.637 958.43C459.383 959.722 460.612 960.665 462.053 961.051C463.494 961.437 465.029 961.235 466.321 960.489C467.613 959.743 468.556 958.514 468.942 957.073C469.328 955.632 469.126 954.097 468.38 952.805C467.634 951.513 466.406 950.57 464.965 950.184V950.184Z" fill="#4F4F4F"/>
</g>
</g>
<defs>
<clipPath id="clip0_114_490">
<rect width="240" height="240" fill="white" transform="translate(-68.4973 -231.009) rotate(15)"/>
</clipPath>
<clipPath id="clip1_114_490">
<rect width="240" height="240" fill="white" transform="translate(306.282 -130.587) rotate(15)"/>
</clipPath>
<clipPath id="clip2_114_490">
<rect width="240" height="240" fill="white" transform="translate(681.061 -30.1655) rotate(15)"/>
</clipPath>
<clipPath id="clip3_114_490">
<rect width="240" height="240" fill="white" transform="translate(-168.919 143.77) rotate(15)"/>
</clipPath>
<clipPath id="clip4_114_490">
<rect width="240" height="240" fill="white" transform="translate(205.86 244.192) rotate(15)"/>
</clipPath>
<clipPath id="clip5_114_490">
<rect width="240" height="240" fill="white" transform="translate(955.419 445.036) rotate(15)"/>
</clipPath>
<clipPath id="clip6_114_490">
<rect width="240" height="240" fill="white" transform="translate(854.997 819.815) rotate(15)"/>
</clipPath>
<clipPath id="clip7_114_490">
<rect width="240" height="240" fill="white" transform="translate(1330.2 545.457) rotate(15)"/>
</clipPath>
<clipPath id="clip8_114_490">
<rect width="240" height="240" fill="white" transform="translate(105.438 618.971) rotate(15)"/>
</clipPath>
<clipPath id="clip9_114_490">
<rect width="240" height="240" fill="white" transform="translate(480.218 719.393) rotate(15)"/>
</clipPath>
</defs>
</svg>
